<?xml version="1.0" encoding="UTF-8" standalone="no"?>
<svg
   xmlns:dc="http://purl.org/dc/elements/1.1/"
   xmlns:cc="http://creativecommons.org/ns#"
   xmlns:rdf="http://www.w3.org/1999/02/22-rdf-syntax-ns#"
   xmlns:svg="http://www.w3.org/2000/svg"
   xmlns="http://www.w3.org/2000/svg"
   xmlns:sodipodi="http://sodipodi.sourceforge.net/DTD/sodipodi-0.dtd"
   xmlns:inkscape="http://www.inkscape.org/namespaces/inkscape"
   style="font-style:normal;font-weight:normal;font-size:12px;font-family:Dialog;color-interpolation:auto;fill:#000000;fill-opacity:1;stroke:#000000;stroke-width:1;stroke-linecap:square;stroke-linejoin:miter;stroke-miterlimit:10;stroke-dasharray:none;stroke-dashoffset:0;stroke-opacity:1;color-rendering:auto;image-rendering:auto;shape-rendering:auto;text-rendering:auto"
   width="450"
   height="900"
   version="1.1"
   id="svg4762"
   sodipodi:docname="background.svg"
   inkscape:version="0.92.4 (5da689c313, 2019-01-14)"
   inkscape:export-filename="F:\PC\Document Files\UNN\Scientific work\Levy\Game_client\RWGame\RWGame\RWGame.Android\Resources\drawable\background_1.png"
   inkscape:export-xdpi="230.39999"
   inkscape:export-ydpi="230.39999">
  <metadata
     id="metadata4766">
    <rdf:RDF>
      <cc:Work
         rdf:about="">
        <dc:format>image/svg+xml</dc:format>
        <dc:type
           rdf:resource="http://purl.org/dc/dcmitype/StillImage" />
        <dc:title></dc:title>
      </cc:Work>
    </rdf:RDF>
  </metadata>
  <sodipodi:namedview
     pagecolor="#ffffff"
     bordercolor="#666666"
     borderopacity="1"
     objecttolerance="10"
     gridtolerance="10"
     guidetolerance="10"
     inkscape:pageopacity="0"
     inkscape:pageshadow="2"
     inkscape:window-width="1920"
     inkscape:window-height="1017"
     id="namedview4764"
     showgrid="false"
     inkscape:zoom="0.63926072"
     inkscape:cx="-292.4867"
     inkscape:cy="410.13989"
     inkscape:window-x="-8"
     inkscape:window-y="-8"
     inkscape:window-maximized="1"
     inkscape:current-layer="svg4762" />
  <!--Generated by the Batik Graphics2D SVG Generator-->
  <defs
     id="genericDefs" />
  <rect
     style="display:inline;opacity:1;fill:#ffffff;fill-opacity:1;fill-rule:evenodd;stroke:none;stroke-width:0;stroke-miterlimit:10;stroke-dasharray:none;stroke-opacity:1;paint-order:fill markers stroke"
     id="rect4768"
     width="452.08472"
     height="901.04083"
     x="0"
     y="0.52348554"
     inkscape:export-xdpi="230.39999"
     inkscape:export-ydpi="230.39999" />
  <g
     style="display:inline;color-interpolation:linearRGB;fill:#0072bd;stroke:#0072bd;stroke-width:4;stroke-linecap:butt;stroke-linejoin:round;color-rendering:optimizeQuality;image-rendering:optimizeQuality;text-rendering:geometricPrecision"
     id="g4758"
     transform="rotate(180,296.25972,325.33349)">
    <path
       d="m 505.4286,226 v -27.2857 h 27.2857 v -27.2857 h -27.2857 v 27.2857 h 27.2857 V 226 H 560 V 198.7143 H 532.7143 V 226 h -27.2857 v 27.2857 h -27.2857 v 27.2857 h 27.2857 V 253.2857 H 478.1429 V 226 h 27.2857 v -27.2857 h 27.2857 v -27.2857 h -27.2857 v 27.2857 h -27.2857 v -27.2857 h 27.2857 v 27.2857 h 27.2857 v -27.2857 h -27.2857 v -27.2857 h 27.2857 v 27.2857 h -27.2857 v -27.2857 h -27.2857 v -27.2858 h -27.2858 v 27.2858 H 423.5714 V 116.8571 H 396.2857 V 89.5714 H 369 V 62.2857 h 27.2857 v 27.2857 h 27.2857 v 27.2857 H 396.2857 V 89.5714 h 27.2857 V 62.2857 h 27.2857 v 27.2857 h 27.2858 v 27.2857 h 27.2857 v 27.2858 H 478.1429 V 116.8571 H 450.8571 V 89.5714 h 27.2858 v 27.2857 h -27.2858 v 27.2858 h -27.2857 v -27.2858 h 27.2857 V 89.5714 h 27.2858 V 62.2857 h -27.2858 v 27.2857 h 27.2858 V 62.2857 H 450.8571 V 35 H 423.5714 V 7.7143 H 396.2857 V -19.5714 H 369 V 7.7143 h 27.2857 V 35 H 369 V 7.7143 H 341.7143 V 35 H 314.4286 V 62.2857 H 287.1429 V 89.5714 H 259.8571 V 62.2857 h 27.2858 V 35 h 27.2857 v 27.2857 h -27.2857 v 27.2857 h 27.2857 v 27.2857 H 287.1429 V 89.5714 h -27.2858 v 27.2857 h 27.2858 V 89.5714 h 27.2857 v 27.2857 h 27.2857 v 27.2858 h -27.2857 v -27.2858 h 27.2857 v 27.2858 H 369 v 27.2857 h -27.2857 v 27.2857 H 314.4286 V 226 h 27.2857 V 198.7143 H 314.4286 V 226 H 287.1429 V 198.7143 H 259.8571 V 226 h 27.2858 v 27.2857 h 27.2857 v 27.2857 h 27.2857 v 27.2857 h -27.2857 v 27.2858 h -27.2857 v -27.2858 h 27.2857 v -27.2857 h -27.2857 v -27.2857 h 27.2857 v 27.2857 h 27.2857 v 27.2857 H 369 v -27.2857 h 27.2857 v 27.2857 h 27.2857 v 27.2858 h -27.2857 v 27.2857 h 27.2857 v 27.2857 H 396.2857 V 417 H 369 v -27.2857 h 27.2857 v -27.2857 h 27.2857 v -27.2857 h -27.2857 v -27.2858 h 27.2857 v 27.2858 h 27.2857 v -27.2858 h -27.2857 v -27.2857 h 27.2857 v -27.2857 h -27.2857 v 27.2857 h -27.2857 v 27.2857 H 369 v -27.2857 h 27.2857 V 253.2857 H 369 v 27.2857 h 27.2857 v -27.2857 h 27.2857 V 226 h -27.2857 v 27.2857 H 369 V 226 H 341.7143 V 198.7143 H 314.4286 V 226 h 27.2857 v 27.2857 H 369 v 27.2857 h 27.2857 v 27.2857 h 27.2857 v -27.2857 h -27.2857 v -27.2857 h 27.2857 V 226 h -27.2857 v 27.2857 H 369 v 27.2857 h -27.2857 v 27.2857 h -27.2857 v 27.2858 h -27.2857 v 27.2857 h -27.2858 v 27.2857 h 27.2858 v -27.2857 h 27.2857 v -27.2857 h -27.2857 v -27.2858 h -27.2858 v 27.2858 h 27.2858 v 27.2857 h -27.2858 v -27.2857 h 27.2858 v -27.2858 h -27.2858 v 27.2858 h 27.2858 v 27.2857 h -27.2858 v -27.2857 h 27.2858 v -27.2858 h 27.2857 v -27.2857 h -27.2857 v -27.2857 h -27.2858 v 27.2857 h -27.2857 v 27.2857 h 27.2857 v -27.2857 h 27.2858 v 27.2857 h -27.2858 v 27.2858 h -27.2857 v 27.2857 h 27.2857 v -27.2857 h -27.2857 v 27.2857 h 27.2857 v 27.2857 H 232.5714 V 417 h 27.2857 v -27.2857 h -27.2857 v -27.2857 h 27.2857 v -27.2857 h -27.2857 v -27.2858 h -27.2857 v 27.2858 H 178 v 27.2857 h 27.2857 v 27.2857 h 27.2857 V 417 h -27.2857 v -27.2857 h 27.2857 V 417 h 27.2857 v 27.2857 h 27.2858 v 27.2857 h -27.2858 v -27.2857"
       style="fill:none;fill-rule:evenodd"
       id="path4756"
       inkscape:connector-curvature="0" />
  </g>
</svg>
