<?xml version="1.0" encoding="UTF-8" standalone="no"?>
<svg
   xmlns:dc="http://purl.org/dc/elements/1.1/"
   xmlns:cc="http://creativecommons.org/ns#"
   xmlns:rdf="http://www.w3.org/1999/02/22-rdf-syntax-ns#"
   xmlns:svg="http://www.w3.org/2000/svg"
   xmlns="http://www.w3.org/2000/svg"
   xmlns:sodipodi="http://sodipodi.sourceforge.net/DTD/sodipodi-0.dtd"
   xmlns:inkscape="http://www.inkscape.org/namespaces/inkscape"
   style="font-style:normal;font-weight:normal;font-size:12px;font-family:Dialog;color-interpolation:auto;fill:#000000;fill-opacity:1;stroke:#000000;stroke-width:1;stroke-linecap:square;stroke-linejoin:miter;stroke-miterlimit:10;stroke-dasharray:none;stroke-dashoffset:0;stroke-opacity:1;color-rendering:auto;image-rendering:auto;shape-rendering:auto;text-rendering:auto"
   width="450"
   height="900"
   version="1.1"
   id="svg4762"
   sodipodi:docname="background_2.svg"
   inkscape:version="0.92.4 (5da689c313, 2019-01-14)"
   inkscape:export-filename="F:\PC\Document Files\UNN\Scientific work\Levy\Game_client\RWGame\RWGame\RWGame.Android\Resources\drawable\background_2.png"
   inkscape:export-xdpi="230.39999"
   inkscape:export-ydpi="230.39999">
  <metadata
     id="metadata4766">
    <rdf:RDF>
      <cc:Work
         rdf:about="">
        <dc:format>image/svg+xml</dc:format>
        <dc:type
           rdf:resource="http://purl.org/dc/dcmitype/StillImage" />
        <dc:title></dc:title>
      </cc:Work>
    </rdf:RDF>
  </metadata>
  <sodipodi:namedview
     pagecolor="#ffffff"
     bordercolor="#666666"
     borderopacity="1"
     objecttolerance="10"
     gridtolerance="10"
     guidetolerance="10"
     inkscape:pageopacity="0"
     inkscape:pageshadow="2"
     inkscape:window-width="1920"
     inkscape:window-height="1017"
     id="namedview4764"
     showgrid="false"
     inkscape:zoom="0.45202559"
     inkscape:cx="114.65077"
     inkscape:cy="251.09367"
     inkscape:window-x="-8"
     inkscape:window-y="-8"
     inkscape:window-maximized="1"
     inkscape:current-layer="svg4762" />
  <!--Generated by the Batik Graphics2D SVG Generator-->
  <defs
     id="genericDefs" />
  <rect
     style="display:inline;opacity:1;fill:#ffffff;fill-opacity:1;fill-rule:evenodd;stroke:none;stroke-width:0;stroke-miterlimit:10;stroke-dasharray:none;stroke-opacity:1;paint-order:fill markers stroke"
     id="rect4768"
     width="450"
     height="900"
     x="0"
     y="6.6613381e-15"
     inkscape:export-xdpi="230.39999"
     inkscape:export-ydpi="230.39999" />
  <g
     style="display:inline;color-interpolation:linearRGB;fill:#0072bd;stroke:#0072bd;stroke-width:4;stroke-linecap:butt;stroke-linejoin:round;color-rendering:optimizeQuality;image-rendering:optimizeQuality;text-rendering:geometricPrecision"
     id="g4758"
     transform="rotate(-180,296.25972,325.33349)">
    <path
       id="path4756"
       style="fill:none;fill-rule:evenodd"
       d="m 505.4286,-107 v 27.2857 h 27.2857 v 27.2857 h -27.2857 v -27.2857 h 27.2857 V -107 H 560 v 27.2857 H 532.7143 V -107 h -27.2857 v -27.2857 h -27.2857 v -27.2857 h 27.2857 v 27.2857 H 478.1429 V -107 h 27.2857 v 27.2857 h 27.2857 v 27.2857 h -27.2857 v -27.2857 h -27.2857 v 27.2857 h 27.2857 v -27.2857 h 27.2857 v 27.2857 h -27.2857 v 27.2857 h 27.2857 v -27.2857 h -27.2857 v 27.2857 H 478.1429 V 2.1429 H 450.8571 V -25.1429 H 423.5714 V 2.1429 H 396.2857 V 29.4286 H 369 v 27.2857 h 27.2857 V 29.4286 h 27.2857 V 2.1429 h -27.2857 v 27.2857 h 27.2857 v 27.2857 h 27.2857 V 29.4286 h 27.2858 V 2.1429 h 27.2857 V -25.1429 H 478.1429 V 2.1429 h -27.2858 v 27.2857 h 27.2858 V 2.1429 H 450.8571 V -25.1429 H 423.5714 V 2.1429 h 27.2857 v 27.2857 h 27.2858 V 56.7143 H 450.8571 V 29.4286 h 27.2858 V 56.7143 H 450.8571 V 84 h -27.2857 v 27.2857 h -27.2857 v 27.2857 H 369 v -27.2857 h 27.2857 V 84 H 369 v 27.2857 H 341.7143 V 139 h -27.2857 v 27.2857 h -27.2857 v 27.2857 h -27.2858 v -27.2857 h 27.2858 V 139 h 27.2857 v 27.2857 h -27.2857 v 27.2857 h 27.2857 v 27.2857 h -27.2857 v -27.2857 h -27.2858 v 27.2857 h 27.2858 v -27.2857 h 27.2857 v 27.2857 h 27.2857 v 27.2858 h -27.2857 v -27.2858 h 27.2857 v 27.2858 H 369 v 27.2857 h -27.2857 v 27.2857 H 314.4286 V 330 h 27.2857 V 302.7143 H 314.4286 V 330 H 287.1429 V 302.7143 H 259.8571 V 330 h 27.2858 v 27.2857 h 27.2857 v 27.2857 h 27.2857 v 27.2857 h -27.2857 v 27.2858 h -27.2857 v -27.2858 h 27.2857 v -27.2857 h -27.2857 v -27.2857 h 27.2857 v 27.2857 h 27.2857 v 27.2857 H 369 v -27.2857 h 27.2857 v 27.2857 h 27.2857 v 27.2858 h -27.2857 v 27.2857 h 27.2857 v 27.2857 H 396.2857 V 521 H 369 v -27.2857 h 27.2857 v -27.2857 h 27.2857 v -27.2857 h -27.2857 v -27.2858 h 27.2857 v 27.2858 h 27.2857 v -27.2858 h -27.2857 v -27.2857 h 27.2857 v -27.2857 h -27.2857 v 27.2857 h -27.2857 v 27.2857 H 369 v -27.2857 h 27.2857 V 357.2857 H 369 v 27.2857 h 27.2857 v -27.2857 h 27.2857 V 330 h -27.2857 v 27.2857 H 369 V 330 H 341.7143 V 302.7143 H 314.4286 V 330 h 27.2857 v 27.2857 H 369 v 27.2857 h 27.2857 v 27.2857 h 27.2857 v -27.2857 h -27.2857 v -27.2857 h 27.2857 V 330 h -27.2857 v 27.2857 H 369 v 27.2857 h -27.2857 v 27.2857 h -27.2857 v 27.2858 h -27.2857 v 27.2857 h -27.2858 v 27.2857 h 27.2858 v -27.2857 h 27.2857 v -27.2857 h -27.2857 v -27.2858 h -27.2858 v 27.2858 h 27.2858 v 27.2857 h -27.2858 v -27.2857 h 27.2858 v -27.2858 h -27.2858 v 27.2858 h 27.2858 v 27.2857 h -27.2858 v -27.2857 h 27.2858 v -27.2858 h 27.2857 v -27.2857 h -27.2857 v -27.2857 h -27.2858 v 27.2857 h -27.2857 v 27.2857 h 27.2857 v -27.2857 h 27.2858 v 27.2857 h -27.2858 v 27.2858 h -27.2857 v 27.2857 h 27.2857 v -27.2857 h -27.2857 v 27.2857 h 27.2857 v 27.2857 H 232.5714 V 521 h 27.2857 v -27.2857 h -27.2857 v -27.2857 h 27.2857 v -27.2857 h -27.2857 v -27.2858 h -27.2857 v 27.2858 H 178 v 27.2857 h 27.2857 v 27.2857 h 27.2857 V 521 h -27.2857 v -27.2857 h 27.2857 V 521 h 27.2857 v 27.2857 h 27.2858 v 27.2857 h -27.2858 v -27.2857"
       inkscape:connector-curvature="0"
       sodipodi:nodetypes="cccccccccccccccccccccccccccccccccccccccccccccccccccccccccccccccccccccccccccccccccccccccccccccccccccccccccccccccccccccccccccccccccccccccccccccccccccccccccccccccccccccccccccccccccccccccccccccccccccccccccccccccccccccccccccccccccccccccccccccccccccccccccccccccccccccccccccccccccccccccccccccccccccccccccccc" />
  </g>
</svg>
