<?xml version="1.0" encoding="utf-8"?>
<!-- Generator: Adobe Illustrator 23.1.0, SVG Export Plug-In . SVG Version: 6.00 Build 0)  -->
<svg version="1.1" id="Layer_1" xmlns="http://www.w3.org/2000/svg" xmlns:xlink="http://www.w3.org/1999/xlink" x="0px" y="0px"
	 viewBox="0 0 30 30" style="enable-background:new 0 0 30 30;" xml:space="preserve">
<path style="fill:none" d="M16,6.5c0.5-0.3,0.7-0.7,0.7-1.3c0-1.6-2-2.2-2.9-0.9c-0.3,0.4-0.3,1.2,0,1.7c0.2,0.4,1,0.8,1.5,0.8
	C15.5,6.7,15.9,6.6,16,6.5z M27.1,21.7c0.4-0.2,0.9-0.8,1.1-1.2c0.1-0.4,0.1-1.5,0-2c-0.1-0.2-0.3-0.6-0.4-0.8
	c-0.3-0.4-1.1-0.8-1.2-0.7c0,0-0.1,1.1-0.1,2.4C26.5,22.1,26.5,22,27.1,21.7z M3.5,19.5c0-2.8,0-2.7-0.9-1.8c-1.2,1.2-1.2,3,0.2,3.9
	C3.5,22.1,3.5,22.1,3.5,19.5z M21.5,18.1c0.2-0.2,0.3-0.7,0.2-1c-0.2-0.5-0.9-0.6-1.3-0.2c-0.2,0.2-0.2,0.9,0,1.1
	C20.5,18.3,21.2,18.3,21.5,18.1z M20.3,19.7c-0.8-0.2-1.3-0.6-1.6-1.4c-0.4-0.8-0.3-1.6,0.4-2.3c0.7-0.9,1.8-1.1,2.8-0.6
	c1.5,0.8,1.8,2.7,0.5,3.8C21.7,19.8,21,19.9,20.3,19.7z M9.9,18.1c0.3-0.3,0.3-0.9-0.1-1.2c-0.2-0.1-0.4-0.2-0.5-0.2
	c-0.3,0-0.8,0.4-0.8,0.7c0,0.3,0.2,0.7,0.4,0.8C9.1,18.3,9.7,18.2,9.9,18.1z M8.6,19.7C7.7,19.3,7,18.4,7,17.5
	c0-1.3,1.1-2.3,2.4-2.3c1.3,0,2.5,1.4,2.2,2.7C11.4,19.2,9.8,20.1,8.6,19.7z M12.7,23.7c-0.5-0.2-0.6-0.9-0.2-1.3
	c0.2-0.2,0.5-0.2,2.5-0.2c2.5,0,2.9,0,3,0.5c0.1,0.4,0,0.8-0.3,0.9C17.3,23.8,13,23.8,12.7,23.7z M23.2,26.3c1-0.5,1.7-1.4,1.8-2.5
	c0-0.3,0.1-0.5,0.2-0.6c0.1-0.1,0.1-1.9,0.1-4.5l0-4.4l-0.4-0.7c-0.4-0.8-1-1.3-1.7-1.6c-0.4-0.2-0.9-0.2-7.9-0.2H7.7l-0.6,0.3
	c-0.7,0.3-1.3,0.9-1.6,1.6c-0.2,0.5-0.2,0.5-0.2,5.6c0,5,0,5.1,0.2,5.6c0.4,0.9,1.3,1.6,2.2,1.8c0.2,0,3.6,0.1,7.6,0.1l7.3,0
	L23.2,26.3z M6.9,27.9c-0.9-0.3-1.5-0.7-2.1-1.4c-0.6-0.7-1-1.5-1.2-2.4c-0.1-0.4-0.2-0.6-0.2-0.6c-0.3,0-1.5-0.7-2-1.1
	c-1.9-1.9-1.5-5.1,0.7-6.4c0.3-0.2,0.8-0.4,1-0.5c0.4-0.1,0.4-0.1,0.5-0.7c0.2-1.8,1-3.1,2.5-4c0.9-0.5,1.5-0.6,4.9-0.6h3.2V8.1
	l-0.5-0.2c-0.7-0.3-1.4-1-1.7-1.8c-0.3-0.8-0.2-1.8,0.2-2.6c0.5-1,1.4-1.5,2.6-1.6c0.7,0,0.8,0,1.4,0.2c1.2,0.5,1.9,1.6,1.9,2.8
	c0,0.4-0.1,0.8-0.1,1c-0.2,0.7-0.9,1.4-1.6,1.8l-0.7,0.4l0.1,2l3.5,0.1c3.3,0.1,3.5,0.1,4.1,0.3c1.8,0.7,2.9,2.3,3.1,4l0.1,0.8
	l0.4,0.1c1.2,0.3,2.2,1.2,2.6,2.3c0.3,0.9,0.3,2.4,0,3.3c-0.4,1.2-1.5,2.1-2.6,2.5c-0.4,0.1-0.4,0.1-0.6,0.8
	c-0.3,1.5-1.2,2.7-2.7,3.4L23,28.1l-7.7,0C8,28.1,7.5,28.1,6.9,27.9z"/>
<path style="fill:#52B6E8" d="M16.3,6.4C17,5.8,17,4.8,16.4,4.2c-1-1.1-2.8-0.5-2.8,1c0,1,0.8,1.6,1.8,1.5C15.9,6.7,16.1,6.6,16.3,6.4z
	 M27.2,21.7c0.8-0.5,1.2-1.1,1.1-2c0-1-0.2-1.5-0.7-2c-0.4-0.4-1-0.7-1.1-0.6c0,0-0.1,1.1-0.1,2.4c0,2.2,0,2.4,0.2,2.4
	C26.8,21.9,27.1,21.8,27.2,21.7z M3.5,19.5V17l-0.3,0.2c-0.4,0.2-1,0.9-1.3,1.3c-0.3,0.5-0.3,1.6,0,2.2c0.3,0.6,1,1.2,1.4,1.2
	C3.5,21.9,3.5,21.4,3.5,19.5z M21.2,18.3c0.2,0,0.5-0.4,0.5-0.8c0-0.6-0.7-1-1.3-0.7c-0.3,0.2-0.5,0.7-0.3,1.1
	c0.1,0.3,0.6,0.6,0.8,0.5C21.1,18.3,21.2,18.3,21.2,18.3z M20.3,19.7c-0.6-0.2-1.1-0.5-1.4-1.1c-1.1-1.8,1-4.1,2.9-3.2
	c0.8,0.4,1.4,1.3,1.4,2.1C23.2,19,21.7,20.2,20.3,19.7z M9.9,18.2c0.4-0.3,0.3-1.1-0.1-1.4C9,16.4,8.2,17.3,8.7,18
	C8.9,18.4,9.5,18.4,9.9,18.2z M8.9,19.8c-1.5-0.4-2.3-1.9-1.6-3.3c0.6-1.3,2.3-1.7,3.4-0.8c1,0.7,1.3,2,0.7,3
	c-0.3,0.6-0.8,0.9-1.4,1.1C9.4,19.9,9.4,19.9,8.9,19.8z M12.5,23.6c-0.3-0.3-0.4-0.8-0.1-1.1c0.2-0.2,0.5-0.2,2.7-0.2
	c2.4,0,2.5,0,2.7,0.2c0.3,0.3,0.3,0.8-0.1,1c-0.3,0.2-0.4,0.2-2.6,0.2S12.8,23.8,12.5,23.6z M23.1,26.4c1-0.5,1.7-1.5,1.9-2.5
	c0-0.3,0.1-0.5,0.2-0.5c0.1,0,0.1-1.8,0.1-4.5c0-4-0.1-4.6-0.2-5c-0.3-0.7-0.9-1.4-1.6-1.8l-0.6-0.3l-7.3,0c-6.5,0-7.4,0-7.9,0.1
	c-1.1,0.3-1.8,1-2.2,2.1c-0.1,0.4-0.2,1.2-0.1,5.4l0,4.9l0.3,0.6c0.4,0.7,1,1.3,1.8,1.6c0.5,0.2,1.1,0.2,7.9,0.2
	C22.6,26.7,22.7,26.7,23.1,26.4z M6.9,28c-1.7-0.5-2.9-2-3.3-3.7c-0.1-0.6-0.1-0.7-0.5-0.8c-0.6-0.2-1.6-0.9-2-1.3
	c-0.9-1.1-1.1-2.6-0.7-3.9C0.8,17,1.7,16.2,3,15.7l0.7-0.2l0.1-0.7c0.2-2,1.5-3.6,3.4-4.2c0.7-0.2,1-0.2,3.9-0.2h3.2V8.2L13.8,8
	c-1.4-0.6-2.2-2.3-1.7-3.8c0.3-0.8,1.1-1.6,1.8-1.9c2.4-0.9,4.9,1.4,4.1,3.8c-0.3,0.9-1.1,1.7-1.9,2l-0.3,0.1l0,1l0,1l3.5,0.1
	c3.3,0.1,3.5,0.1,4.1,0.3c0.9,0.4,1.6,0.8,2.1,1.6c0.6,0.8,0.9,1.6,1,2.5l0.1,0.7l0.5,0.2c0.8,0.3,1.2,0.5,1.7,1
	c1.1,1.1,1.4,2.7,0.8,4.4c-0.4,1.1-1.2,1.9-2.4,2.4l-0.6,0.3l-0.1,0.6c-0.2,0.9-0.6,1.7-1.3,2.3c-0.6,0.7-1.2,1-2.1,1.3
	c-0.6,0.2-1.1,0.2-8.1,0.2C8,28.2,7.5,28.2,6.9,28z"/>
</svg>
