<?xml version="1.0" encoding="UTF-8" standalone="no"?>
<!-- Created with Inkscape (http://www.inkscape.org/) -->

<svg
   xmlns:dc="http://purl.org/dc/elements/1.1/"
   xmlns:cc="http://creativecommons.org/ns#"
   xmlns:rdf="http://www.w3.org/1999/02/22-rdf-syntax-ns#"
   xmlns:svg="http://www.w3.org/2000/svg"
   xmlns="http://www.w3.org/2000/svg"
   xmlns:sodipodi="http://sodipodi.sourceforge.net/DTD/sodipodi-0.dtd"
   xmlns:inkscape="http://www.inkscape.org/namespaces/inkscape"
   version="1.1"
   id="svg4518"
   xml:space="preserve"
   width="261.79999"
   height="200.24001"
   viewBox="0 0 261.79999 200.24001"
   sodipodi:docname="Lobachevsky University-vert-logo.svg"
   inkscape:export-filename="F:\PC\Document Files\UNN\Scientific work\Levy\Game_client\RWGame\RWGame\RWGame.Android\Resources\drawable\splash.png"
   inkscape:export-xdpi="96"
   inkscape:export-ydpi="96"
   inkscape:version="0.92.4 (5da689c313, 2019-01-14)"><metadata
     id="metadata4524"><rdf:RDF><cc:Work
         rdf:about=""><dc:format>image/svg+xml</dc:format><dc:type
           rdf:resource="http://purl.org/dc/dcmitype/StillImage" /><dc:title></dc:title></cc:Work></rdf:RDF></metadata><defs
     id="defs4522" /><sodipodi:namedview
     pagecolor="#ffffff"
     bordercolor="#666666"
     borderopacity="1"
     objecttolerance="10"
     gridtolerance="10"
     guidetolerance="10"
     inkscape:pageopacity="0"
     inkscape:pageshadow="2"
     inkscape:window-width="1920"
     inkscape:window-height="1017"
     id="namedview4520"
     showgrid="false"
     inkscape:zoom="4.3198161"
     inkscape:cx="130.89999"
     inkscape:cy="100.12"
     inkscape:window-x="-8"
     inkscape:window-y="-8"
     inkscape:window-maximized="1"
     inkscape:current-layer="g4526" /><g
     id="g4526"
     inkscape:groupmode="layer"
     inkscape:label="ink_ext_XXXXXX"
     transform="matrix(1.3333333,0,0,-1.3333333,0,200.24)"><g
       id="g4528"
       transform="scale(0.1)"><path
         d="m 36.2734,302.738 v 91.524 h 0.0704 v 42.437 H 0.00390625 V 269.582 H 123.922 v 33.156 H 36.2734 v 0"
         style="fill:#3064ae;fill-opacity:1;fill-rule:nonzero;stroke:none"
         id="path4530"
         inkscape:connector-curvature="0" /><path
         d="m 256.422,428.66 c 10.664,-4.281 19.734,-10.238 27.148,-17.781 7.539,-7.547 13.426,-16.481 17.657,-26.797 4.082,-10.172 6.289,-21.312 6.289,-33.434 0,-11.628 -2.207,-22.566 -6.289,-32.75 -4.231,-10.316 -10.188,-19.238 -17.727,-26.929 -7.547,-7.68 -16.621,-13.707 -27.207,-18.137 -10.527,-4.434 -22.156,-6.641 -34.969,-6.641 -12.597,0 -24.16,2.141 -34.621,6.43 -10.449,4.301 -19.512,10.18 -27.195,17.789 -7.688,7.551 -13.574,16.551 -17.793,26.801 -4.152,10.379 -6.301,21.461 -6.301,33.437 0,11.551 2.149,22.563 6.301,32.883 4.219,10.379 10.105,19.321 17.793,26.86 7.683,7.621 16.746,13.64 27.195,18.07 10.461,4.359 22.024,6.578 34.621,6.578 12.813,0 24.512,-2.078 35.098,-6.379 z m -56.008,-30.109 c -6.23,-2.692 -11.414,-6.43 -15.711,-11.141 -4.289,-4.711 -7.539,-10.18 -9.824,-16.48 -2.219,-6.301 -3.399,-13.008 -3.399,-20.282 0,-7.269 1.18,-14.058 3.399,-20.5 2.285,-6.296 5.605,-11.828 9.969,-16.539 4.355,-4.711 9.543,-8.308 15.644,-11.078 6.164,-2.633 13.086,-3.941 20.832,-3.941 7.899,0 14.961,1.379 21.192,4.148 6.16,2.703 11.492,6.512 15.781,11.293 4.226,4.699 7.41,10.239 9.629,16.539 2.137,6.301 3.25,12.95 3.25,20.078 0,7.403 -1.18,14.25 -3.321,20.692 -2.351,6.379 -5.535,11.91 -9.91,16.621 -4.218,4.57 -9.543,8.309 -15.715,10.801 -6.218,2.629 -13.152,3.879 -20.906,3.879 -7.746,0 -14.668,-1.391 -20.91,-4.09 v 0"
         style="fill:#3064ae;fill-opacity:1;fill-rule:nonzero;stroke:none"
         id="path4532"
         inkscape:connector-curvature="0" /><path
         d="m 457.613,419.809 c 9.696,-7.887 14.61,-18.688 14.61,-32.399 0,-6.789 -1.387,-12.879 -4.231,-18.14 -2.898,-5.329 -6.707,-9.282 -11.562,-11.911 v -2.078 c 7.902,-2.621 14.269,-7.269 19.043,-13.98 4.777,-6.711 7.062,-14.403 7.062,-23.332 0,-6.578 -1.105,-12.809 -3.457,-18.758 -2.297,-5.961 -5.957,-10.941 -10.879,-15.371 -4.914,-4.301 -11.211,-7.828 -18.683,-10.391 -7.684,-2.617 -16.621,-3.867 -26.934,-3.867 h -78.445 v 162.137 h 71.66 c 18.066,0 31.98,-4.02 41.816,-11.91 z m -40.363,-52 c 6.164,0 10.938,1.461 14.473,4.511 3.39,2.899 5.187,7.059 5.187,12.18 0,10.801 -6.992,16.199 -20.84,16.199 h -35.793 v -32.89 z m 5.879,-67.219 c 15.93,0 23.887,6.371 23.887,19.109 0,6.09 -2.078,10.731 -6.231,13.84 -4.219,3.199 -10.242,4.781 -17.859,4.781 h -42.649 v -37.73 h 42.852 v 0"
         style="fill:#3064ae;fill-opacity:1;fill-rule:nonzero;stroke:none"
         id="path4534"
         inkscape:connector-curvature="0" /><path
         d="m 686.625,269.582 h -40.156 l -12.313,32.117 h -69.511 l -12.122,-32.117 h -39.394 l 66.601,162.34 h 39.883 z m -64.383,64.098 -21.457,61.691 h -2.43 L 576.547,333.68 h 45.695 v 0"
         style="fill:#3064ae;fill-opacity:1;fill-rule:nonzero;stroke:none"
         id="path4536"
         inkscape:connector-curvature="0" /><path
         d="m 821.352,397.93 c -7.411,2.629 -15.575,4.019 -24.649,4.019 -7.89,0 -15.027,-1.25 -21.316,-3.738 -6.446,-2.563 -11.914,-6.09 -16.418,-10.66 -4.5,-4.571 -7.957,-10.11 -10.379,-16.34 -2.434,-6.371 -3.606,-13.16 -3.606,-20.563 0,-7.757 1.25,-14.75 3.743,-21.046 2.488,-6.301 5.957,-11.704 10.515,-16.133 4.504,-4.438 9.914,-7.887 16.203,-10.379 6.309,-2.5 13.231,-3.75 20.77,-3.75 9.211,0 17.793,1.531 25.832,4.711 7.891,3.187 15.156,7.687 21.387,13.711 L 864,292.281 c -18.418,-17.301 -41.613,-26.09 -69.719,-26.09 -12.527,0 -24.09,2.008 -34.617,5.95 -10.449,3.949 -19.387,9.621 -26.934,16.961 -7.55,7.339 -13.292,16.128 -17.511,26.437 -4.219,10.32 -6.297,21.883 -6.297,34.621 0,11.629 2,22.57 6.16,32.961 4.082,10.238 10.039,19.309 17.785,26.988 7.754,7.762 17.11,13.922 27.977,18.352 11.074,4.359 23.469,6.578 37.304,6.578 12.61,0 24.172,-1.867 34.688,-5.68 10.527,-3.73 19.805,-9.277 28.039,-16.609 l -20.07,-26.309 c -5.684,4.989 -12.188,8.789 -19.453,11.489 v 0"
         style="fill:#3064ae;fill-opacity:1;fill-rule:nonzero;stroke:none"
         id="path4538"
         inkscape:connector-curvature="0" /><path
         d="m 944.066,368.301 h 70.894 v 63.418 h 36.55 V 269.582 h -36.55 v 65.078 h -70.894 v -65.078 h -36.523 v 162.137 h 36.523 v -63.418"
         style="fill:#3064ae;fill-opacity:1;fill-rule:nonzero;stroke:none"
         id="path4540"
         inkscape:connector-curvature="0" /><path
         d="m 1226.66,399.039 h -85.43 v -30.457 h 76.29 v -31.711 h -76.29 V 302.25 h 89.59 v -32.668 h -125.45 v 162.137 h 121.29 v -32.68"
         style="fill:#3064ae;fill-opacity:1;fill-rule:nonzero;stroke:none"
         id="path4542"
         inkscape:connector-curvature="0" /><path
         d="m 1342.13,306.129 h 2.49 l 41.55,125.59 h 41.68 L 1363.46,269.09 h -42.78 l -64.4,162.629 h 42.38 l 43.47,-125.59 v 0"
         style="fill:#3064ae;fill-opacity:1;fill-rule:nonzero;stroke:none"
         id="path4544"
         inkscape:connector-curvature="0" /><path
         d="m 1546.23,399.238 c -7.9,2.434 -16.07,3.684 -24.65,3.684 -10.52,0 -18.14,-1.531 -22.71,-4.231 -4.56,-2.832 -6.79,-6.711 -6.79,-11.703 0,-4.769 1.67,-8.238 5,-10.59 3.46,-2.359 8.85,-3.937 16.33,-4.91 l 23.68,-3.187 c 17.72,-2.492 31.02,-7.891 39.88,-16.34 8.72,-8.441 13.15,-19.52 13.15,-33.231 0,-7.96 -1.53,-15.16 -4.57,-21.601 -3.18,-6.43 -7.62,-11.91 -13.56,-16.617 -5.82,-4.571 -13.17,-8.032 -21.89,-10.512 -8.86,-2.641 -18.96,-3.809 -30.18,-3.809 -13.29,0 -25.61,1.379 -36.56,4.079 -10.93,2.769 -21.73,7.621 -32.12,14.539 l 15.24,29.773 c 8.99,-5.684 18,-9.703 27.13,-12.051 9,-2.492 18.55,-3.672 28.52,-3.672 10.67,0 18.56,1.59 23.82,4.782 5.27,3.32 7.76,7.621 7.76,13.078 0,4.711 -1.66,8.383 -5.27,11.152 -3.45,2.77 -9.41,4.711 -17.59,5.809 l -24.92,3.191 c -15.78,2.078 -28.1,7.059 -36.82,14.738 -8.72,7.692 -13.02,18.903 -13.02,33.653 0,8.027 1.52,15.16 4.71,21.386 3.18,6.243 7.48,11.364 13.15,15.653 5.67,4.148 12.46,7.34 20.49,9.558 7.9,2.141 16.76,3.18 26.45,3.18 13.02,0 25.06,-1.66 36,-5.051 10.94,-3.398 20.63,-8.519 28.8,-15.449 l -17.86,-25.891 c -6.51,4.641 -13.57,8.172 -21.6,10.59 v 0"
         style="fill:#3064ae;fill-opacity:1;fill-rule:nonzero;stroke:none"
         id="path4546"
         inkscape:connector-curvature="0" /><path
         d="m 1671.54,369.961 17.58,1.937 45.83,59.821 h 44.72 l -60.22,-75.739 66.04,-86.398 h -46.66 l -49.43,69.156 h -17.86 v -69.156 h -35.72 v 162.137 h 35.72 v -61.758"
         style="fill:#3064ae;fill-opacity:1;fill-rule:nonzero;stroke:none"
         id="path4548"
         inkscape:connector-curvature="0" /><path
         d="m 1881.71,359.582 h 2.5 l 36.28,72.137 h 43.06 l -63,-108 v -54.137 h -36.28 v 54.137 l -62.86,108 h 43.61 l 36.69,-72.137 v 0"
         style="fill:#3064ae;fill-opacity:1;fill-rule:nonzero;stroke:none"
         id="path4550"
         inkscape:connector-curvature="0" /><path
         d="m 103.883,75.25 c 0,-13.0898 3.105,-23.4805 9.277,-31.0898 6.297,-7.6797 15.371,-11.4883 27.481,-11.4883 12.254,0 21.386,3.5976 27.547,10.7969 6.164,7.0625 9.21,17.5898 9.21,31.3007 v 90.6915 h 36.493 V 75.4492 c 0,-11.2109 -1.524,-21.5273 -4.707,-30.8711 C 206.059,35.3008 201.352,27.4102 195.191,20.7617 189.039,14.1914 181.352,8.98828 172.211,5.39063 163.141,1.80078 152.543,0 140.641,0 128.871,0 118.422,1.73047 109.281,5.10938 100.211,8.64063 92.5234,13.6289 86.3633,20.1406 80.0625,26.7188 75.3555,34.6094 72.1719,43.75 68.9102,52.8906 67.25,63.2695 67.25,74.7695 v 90.6915 h 36.633 V 75.25"
         style="fill:#3064ae;fill-opacity:1;fill-rule:nonzero;stroke:none"
         id="path4552"
         inkscape:connector-curvature="0" /><path
         d="M 428.852,3.30859 H 392.633 L 317.797,106.891 V 3.30859 H 282.496 V 165.461 h 32.742 L 393.813,56.0703 V 165.461 h 35.039 V 3.30859"
         style="fill:#3064ae;fill-opacity:1;fill-rule:nonzero;stroke:none"
         id="path4554"
         inkscape:connector-curvature="0" /><path
         d="M 551.246,3.30859 H 514.762 V 165.461 h 36.484 V 3.30859"
         style="fill:#3064ae;fill-opacity:1;fill-rule:nonzero;stroke:none"
         id="path4556"
         inkscape:connector-curvature="0" /><path
         d="m 705.141,39.8711 h 2.355 l 41.68,125.5899 h 41.543 L 726.391,2.89844 H 683.609 L 619.234,165.461 h 42.364 L 705.141,39.8711 v 0"
         style="fill:#3064ae;fill-opacity:1;fill-rule:nonzero;stroke:none"
         id="path4558"
         inkscape:connector-curvature="0" /><path
         d="M 967.633,132.781 H 882.379 V 102.32 H 958.5 V 70.6094 H 882.379 V 36.0703 h 89.414 V 3.30859 H 846.441 V 165.461 h 121.192 v -32.68"
         style="fill:#3064ae;fill-opacity:1;fill-rule:nonzero;stroke:none"
         id="path4560"
         inkscape:connector-curvature="0" /><path
         d="m 1139.47,161.582 c 7.75,-2.633 14.39,-6.301 19.94,-11.082 5.54,-4.84 9.82,-10.66 12.87,-17.449 3.05,-6.781 4.71,-14.321 4.71,-22.77 0,-11.1521 -3.05,-20.9802 -8.86,-29.4997 -5.82,-8.5821 -13.85,-15.0196 -24.38,-19.3125 l 39.47,-58.16021 h -44.04 l -29.76,48.46091 h -32.69 V 3.30859 h -36.27 V 165.461 h 73.39 c 9.27,0 17.85,-1.25 25.62,-3.879 z m -28.39,-77.6836 c 8.73,0 15.64,2.211 20.91,6.5821 5.26,4.3593 7.89,10.4495 7.89,18.1285 0,7.762 -2.36,13.723 -7.34,18.012 -4.99,4.219 -11.77,6.43 -20.49,6.43 h -35.32 V 83.8984 h 34.35 v 0"
         style="fill:#3064ae;fill-opacity:1;fill-rule:nonzero;stroke:none"
         id="path4562"
         inkscape:connector-curvature="0" /><path
         d="m 1331.51,133.051 c -8.03,2.359 -16.2,3.597 -24.79,3.597 -10.66,0 -18.13,-1.378 -22.7,-4.218 -4.57,-2.84 -6.79,-6.719 -6.79,-11.7 0,-4.699 1.66,-8.16 5.13,-10.519 3.32,-2.352 8.72,-4.02 16.2,-4.992 l 23.67,-3.11 c 17.73,-2.4293 31.02,-7.8902 39.75,-16.3395 8.85,-8.5195 13.29,-19.5898 13.29,-33.3007 0,-7.8907 -1.53,-15.0977 -4.58,-21.5274 C 1367.5,24.5 1363.08,18.9609 1357.26,14.3906 1351.31,9.82031 1343.97,6.23047 1335.11,3.73047 1326.38,1.23828 1316.42,0 1305.06,0 c -13.42,0 -25.61,1.37891 -36.55,4.08203 -10.94,2.75781 -21.6,7.53907 -32.12,14.46877 l 15.23,29.7695 c 9,-5.6094 17.99,-9.6211 27.13,-12.0508 9.01,-2.3476 18.42,-3.5976 28.53,-3.5976 10.52,0 18.55,1.5898 23.81,4.7773 5.27,3.25 7.9,7.6094 7.9,13.0821 0,4.707 -1.8,8.3789 -5.26,11.0781 -3.6,2.7695 -9.42,4.7812 -17.73,5.8789 l -24.92,3.1211 c -15.92,2.082 -28.11,7.0625 -36.83,14.8125 -8.73,7.6875 -13.01,18.8981 -13.01,33.6481 0,8.032 1.51,15.16 4.7,21.321 3.19,6.23 7.47,11.429 13.16,15.648 5.67,4.223 12.46,7.34 20.48,9.551 8.04,2.219 16.76,3.25 26.45,3.25 13.02,0 25.06,-1.719 36.14,-5.051 10.8,-3.391 20.49,-8.508 28.66,-15.5 l -17.86,-25.898 c -6.36,4.711 -13.57,8.168 -21.46,10.66 v 0"
         style="fill:#3064ae;fill-opacity:1;fill-rule:nonzero;stroke:none"
         id="path4564"
         inkscape:connector-curvature="0" /><path
         d="m 1477.17,3.30859 h -36.55 V 165.461 h 36.55 V 3.30859"
         style="fill:#3064ae;fill-opacity:1;fill-rule:nonzero;stroke:none"
         id="path4566"
         inkscape:connector-curvature="0" /><path
         d="m 1692.34,132.57 h -55.38 V 3.30859 h -36 V 132.57 h -55.53 v 32.891 h 146.91 V 132.57"
         style="fill:#3064ae;fill-opacity:1;fill-rule:nonzero;stroke:none"
         id="path4568"
         inkscape:connector-curvature="0" /><path
         d="m 1814.47,93.3906 h 2.35 l 36.27,72.0704 h 43.2 L 1833.3,57.5898 V 3.30859 h -36.28 V 57.5898 l -62.86,107.8712 h 43.47 l 36.84,-72.0704 v 0"
         style="fill:#3064ae;fill-opacity:1;fill-rule:nonzero;stroke:none"
         id="path4570"
         inkscape:connector-curvature="0" /><path
         d="m 622.523,1418.94 c 54.766,28.67 117.129,50.82 184.707,65.08 1.868,0.28 3.665,-1.11 3.665,-2.91 v -381.66 c 0,-157.368 127.527,-284.887 284.855,-284.887 86.54,0 176.4,49.984 214.61,126.136 1.8,3.047 4.7,4.504 7.48,4.504 1.94,0 3.87,-0.769 5.12,-2.293 1.11,-1.515 2.08,-4.086 0.83,-8.301 C 1269.1,798.219 1118.32,727.051 981.793,704.695 798.023,748.238 620.922,898.605 620.922,1099.45 v 316.87 c 0,1.1 0.703,2.07 1.601,2.62 v 0"
         style="fill:#3064ae;fill-opacity:1;fill-rule:evenodd;stroke:none"
         id="path4572"
         inkscape:connector-curvature="0" /><path
         d="m 1152.65,1080.41 c 0,-33.37 -28.66,-60.1 -62.86,-56.63 -29.63,2.97 -51.09,30.11 -51.09,59.95 v 413.45 c 0,1.52 -1.11,2.9 -2.63,3.04 -17.86,1.04 -36,1.59 -54.277,1.59 -44.824,0 -88.516,-3.39 -130.469,-9.9 -1.457,-0.14 -2.492,-1.45 -2.492,-2.91 v -381.11 c 0,-131.542 99.277,-246.394 230.438,-254.835 143.72,-9.278 263.35,104.539 263.35,246.395 v 316.87 c 0,1.1 -0.68,2.07 -1.52,2.62 -54.83,28.67 -117.14,50.82 -184.71,65.08 -1.93,0.28 -3.74,-1.11 -3.74,-2.91 v -400.7"
         style="fill:#3064ae;fill-opacity:1;fill-rule:evenodd;stroke:none"
         id="path4574"
         inkscape:connector-curvature="0" /></g></g></svg>