<?xml version="1.0" encoding="UTF-8" standalone="no"?>
<svg
   viewBox="0 0 30 30"
   version="1.1"
   xmlns="http://www.w3.org/2000/svg"
   xmlns:svg="http://www.w3.org/2000/svg">
  <path
     d="m 19.9,17.35 h 4.8 4.8 v -4.8 h -4.8 v 4.8 h -4.8 v -4.8 m 0,-9.7 v 4.8 h -4.8 v 4.8 h -4.9 v 4.8 H 5.4 v -4.8 h 4.8 V 7.65 H 15 v 4.8 h -4.8 v 4.8 H 15 v 4.8 h -4.8 v -4.8 H 5.4 v 4.8 h 4.8 v -4.8 H 15 m 14.5,0.1 v -4.8 h -4.8 v -4.8 h -4.8 v -4.8 h -4.8 m -9.8,19.3 v -4.8 h 4.8 v 4.8 H 5.3 v 4.8 H 0.5 v -4.8 h 4.8 v 4.8 m 14.6,-9.7 h 4.8 4.8 v -4.8 h -4.8 v 4.8 -4.8 h -4.8 m 0,-9.7 v 4.8 h -4.8 v 4.8 m -0.1,0.1 h -4.8 v 4.8 H 5.4 v -4.8 h 4.8 V 7.75 H 15 v 4.8 m 0,0 h -4.8 v 4.8 H 15 v 4.8 h -4.8 v -4.8 H 5.4 v 4.8 h 4.8 v -4.8 H 15 m 14.5,0 v -4.8 h -4.8 v -4.8 h -4.8 v -4.8 h -4.8 v 4.8 h 4.8 v 4.8 m -4.9,0 v -4.8 h -4.8 m -4.9,14.5 v -4.8 h 4.8 v 4.8 H 5.3 v 4.8 H 0.5 v -4.8 h 4.8 v 4.8"
     id="path2"
     style="fill:none;stroke:#52b6e8;stroke-opacity:1"
     fill="none"
     stroke-linejoin="round"
     stroke-miterlimit="10"
     stroke-width="1"
     />
</svg>
