<?xml version="1.0" encoding="utf-8"?>
<!-- Generator: Adobe Illustrator 23.1.0, SVG Export Plug-In . SVG Version: 6.00 Build 0)  -->
<svg version="1.1" id="Layer_1" xmlns="http://www.w3.org/2000/svg" xmlns:xlink="http://www.w3.org/1999/xlink" x="0px" y="0px"
	 viewBox="0 0 30 30" style="enable-background:new 0 0 30 30;" xml:space="preserve">
<style type="text/css">
	.st0{fill:none;}
	.st1{fill:none;stroke:#52B6E8;stroke-width:1.5;}
</style>
<path class="st0" d="M10.8,15.6c-1.9-0.4-3.3-1.8-3.8-3.7c-0.1-0.4-0.1-1.4,0-1.8C7.3,9,8,8,8.9,7.3c1.9-1.4,4.5-1.2,6.1,0.4
	c1,0.9,1.5,2.2,1.4,3.5c-0.1,2.1-1.5,3.8-3.6,4.4C12.4,15.7,11.3,15.7,10.8,15.6z M10.9,28.4c-2.1-0.1-4.4-0.5-6.6-1.2L3.7,27l0-2.8
	c0-2.7,0-2.8,0.1-3.3c0.3-1.2,0.8-2.2,1.6-3.1c0.9-0.9,2-1.5,3.2-1.7c0.4-0.1,0.7-0.1,3-0.1c2.3,0,2.6,0,3,0.1
	c1.3,0.2,2.3,0.7,3.1,1.6c0.9,0.9,1.5,2,1.8,3.3c0.1,0.4,0.1,0.7,0.1,3.2v2.7l-0.4,0.2c-0.5,0.2-1.6,0.6-2.3,0.8
	C15.1,28.3,13,28.5,10.9,28.4z"/>
<path class="st1" d="M10.8,15.6c-1.9-0.4-3.3-1.8-3.8-3.7c-0.1-0.4-0.1-1.4,0-1.8C7.3,9,8,8,8.9,7.3c1.9-1.4,4.5-1.2,6.1,0.4
	c1,0.9,1.5,2.2,1.4,3.5c-0.1,2.1-1.5,3.8-3.6,4.4C12.4,15.7,11.3,15.7,10.8,15.6z M10.9,28.4c-2.1-0.1-4.4-0.5-6.6-1.2L3.7,27l0-2.8
	c0-2.7,0-2.8,0.1-3.3c0.3-1.2,0.8-2.2,1.6-3.1c0.9-0.9,2-1.5,3.2-1.7c0.4-0.1,0.7-0.1,3-0.1c2.3,0,2.6,0,3,0.1
	c1.3,0.2,2.3,0.7,3.1,1.6c0.9,0.9,1.5,2,1.8,3.3c0.1,0.4,0.1,0.7,0.1,3.2v2.7l-0.4,0.2c-0.5,0.2-1.6,0.6-2.3,0.8
	C15.1,28.3,13,28.5,10.9,28.4z"/>
<path class="st0" d="M17.5,10.9c-0.3-0.1-0.6-0.2-0.9-0.3l-0.2-0.1l0-0.3c-0.2-1.2-0.8-2.3-1.6-3.2c-0.2-0.2-0.5-0.5-0.7-0.6
	l-0.3-0.2l0-0.3c0.1-1.3,0.7-2.4,1.7-3.2c1.5-1.2,3.3-1.4,5-0.6c2.7,1.3,3.5,4.8,1.6,7.1c-0.6,0.8-1.5,1.3-2.5,1.6
	C19.1,11,18,11,17.5,10.9z M19.7,22.8c0-1.4-0.1-2.1-0.4-3c-0.2-0.6-0.6-1.3-0.9-1.8c-0.4-0.5-1.1-1.3-1.7-1.6
	c-0.5-0.3-1.2-0.7-1.7-0.9l-0.4-0.1l0.3-0.3c0.8-0.9,1.4-2.2,1.5-3.4l0-0.3l2.3,0c1.9,0,2.4,0,2.7,0.1c1.2,0.2,2.3,0.8,3.2,1.7
	c0.9,0.9,1.4,1.9,1.7,3.1c0.1,0.5,0.1,0.5,0.1,3.2v2.7L26,22.3c-0.4,0.2-1.5,0.6-2.2,0.7c-1,0.3-2.4,0.5-3.3,0.5c-0.3,0-0.5,0-0.6,0
	l-0.1,0V22.8z"/>
<path class="st1" d="M17.5,10.9c-0.3-0.1-0.6-0.2-0.9-0.3l-0.2-0.1l0-0.3c-0.2-1.2-0.8-2.3-1.6-3.2c-0.2-0.2-0.5-0.5-0.7-0.6
	l-0.3-0.2l0-0.3c0.1-1.3,0.7-2.4,1.7-3.2c1.5-1.2,3.3-1.4,5-0.6c2.7,1.3,3.5,4.8,1.6,7.1c-0.6,0.8-1.5,1.3-2.5,1.6
	C19.1,11,18,11,17.5,10.9z M19.7,22.8c0-1.4-0.1-2.1-0.4-3c-0.2-0.6-0.6-1.3-0.9-1.8c-0.4-0.5-1.1-1.3-1.7-1.6
	c-0.5-0.3-1.2-0.7-1.7-0.9l-0.4-0.1l0.3-0.3c0.8-0.9,1.4-2.2,1.5-3.4l0-0.3l2.3,0c1.9,0,2.4,0,2.7,0.1c1.2,0.2,2.3,0.8,3.2,1.7
	c0.9,0.9,1.4,1.9,1.7,3.1c0.1,0.5,0.1,0.5,0.1,3.2v2.7L26,22.3c-0.4,0.2-1.5,0.6-2.2,0.7c-1,0.3-2.4,0.5-3.3,0.5c-0.3,0-0.5,0-0.6,0
	l-0.1,0V22.8z"/>
</svg>
