<?xml version="1.0" encoding="UTF-8" standalone="no"?>
<svg
   xmlns:dc="http://purl.org/dc/elements/1.1/"
   xmlns:cc="http://creativecommons.org/ns#"
   xmlns:rdf="http://www.w3.org/1999/02/22-rdf-syntax-ns#"
   xmlns:svg="http://www.w3.org/2000/svg"
   xmlns="http://www.w3.org/2000/svg"
   xmlns:sodipodi="http://sodipodi.sourceforge.net/DTD/sodipodi-0.dtd"
   xmlns:inkscape="http://www.inkscape.org/namespaces/inkscape"
   style="font-style:normal;font-weight:normal;font-size:12px;font-family:Dialog;color-interpolation:auto;fill:#000000;fill-opacity:1;stroke:#000000;stroke-width:1;stroke-linecap:square;stroke-linejoin:miter;stroke-miterlimit:10;stroke-dasharray:none;stroke-dashoffset:0;stroke-opacity:1;color-rendering:auto;image-rendering:auto;shape-rendering:auto;text-rendering:auto;enable-background:new"
   width="156.01891"
   height="78.009453"
   version="1.1"
   id="svg54"
   sodipodi:docname="rw_logo_5.svg"
   inkscape:version="0.92.4 (5da689c313, 2019-01-14)"
   inkscape:export-filename="F:\PC\Document Files\UNN\Scientific work\Levy\Game_client\RWGame\RWGame\RWGame.Android\Resources\drawable\rw_logo_5.png"
   inkscape:export-xdpi="630.07751"
   inkscape:export-ydpi="630.07751">
  <metadata
     id="metadata58">
    <rdf:RDF>
      <cc:Work
         rdf:about="">
        <dc:format>image/svg+xml</dc:format>
        <dc:type
           rdf:resource="http://purl.org/dc/dcmitype/StillImage" />
        <dc:title></dc:title>
      </cc:Work>
    </rdf:RDF>
  </metadata>
  <sodipodi:namedview
     pagecolor="#ffffff"
     bordercolor="#666666"
     borderopacity="1"
     objecttolerance="10"
     gridtolerance="10"
     guidetolerance="10"
     inkscape:pageopacity="0"
     inkscape:pageshadow="2"
     inkscape:window-width="1920"
     inkscape:window-height="1017"
     id="namedview56"
     showgrid="false"
     inkscape:zoom="4"
     inkscape:cx="36.789039"
     inkscape:cy="35.50921"
     inkscape:window-x="-8"
     inkscape:window-y="-8"
     inkscape:window-maximized="1"
     inkscape:current-layer="svg54" />
  <!--Generated by the Batik Graphics2D SVG Generator-->
  <defs
     id="genericDefs" />
  <rect
     style="opacity:1;fill:#39bafa;fill-opacity:1;fill-rule:nonzero;stroke:#ffffff;stroke-width:0;stroke-miterlimit:10;stroke-dasharray:none;stroke-opacity:1;paint-order:fill markers stroke"
     id="rect5092"
     width="158.86879"
     height="78.125"
     x="-1.9937946"
     y="-0.11555" />
  <circle
     style="display:inline;opacity:1;fill:#39bafa;fill-opacity:1;fill-rule:nonzero;stroke:#ffffff;stroke-width:0;stroke-miterlimit:4;stroke-dasharray:none;stroke-opacity:1;paint-order:fill markers stroke"
     id="path65"
     cx="91.00473"
     cy="39.004723"
     r="37.795277"
     inkscape:export-xdpi="500"
     inkscape:export-ydpi="500" />
  <a
     id="a5160"
     transform="matrix(1.1906394,0,0,1.2877691,28.538887,-20.055418)">
    <path
       clip-path="none"
       inkscape:label="path48"
       inkscape:connector-curvature="0"
       id="path4625"
       style="font-style:normal;font-weight:normal;font-size:12px;font-family:Dialog;display:inline;color-interpolation:auto;fill:none;fill-opacity:0.85427091;fill-rule:evenodd;stroke:#ffffff;stroke-width:1.8031987;stroke-linecap:square;stroke-linejoin:miter;stroke-miterlimit:10;stroke-dasharray:none;stroke-dashoffset:0;stroke-opacity:1;color-rendering:auto;image-rendering:auto;shape-rendering:auto;text-rendering:auto;enable-background:new"
       d="m 41.3833,75.930664 h 7.309872 v 6.758528 h 7.309866 v -6.758528 h -7.309866 v 6.758528 H 41.3833 v 6.758519 h 7.309872 V 82.689192 H 41.3833 v -6.758528 h -7.309871 v -6.758518 h -7.309868 v 6.758518 h 7.309868 V 69.172146 H 41.3833 v 6.758518 h 7.309872 v 6.758528 h 7.309866 v -6.758528 h -7.309866 v -6.758518 h 7.309866 v 6.758518 h -7.309866 v 6.758528 h 7.309866 v -6.758528 h 7.309871 v 6.758528 h -7.309871 v -6.758528 h 7.309871 v -6.758518 h 7.309893 v -6.75855 H 63.312909 V 55.65507 h 7.309893 v -6.758525 h 7.309868 v -6.75852 h 7.309871 v 6.75852 H 77.93267 v 6.758525 h -7.309868 v -6.758525 h 7.309868 v 6.758525 h 7.309871 v 6.758526 H 77.93267 v 6.75855 h -7.309868 v 6.758518 h -7.309893 v -6.758518 h 7.309893 v -6.75855 h 7.309868 v 6.75855 h -7.309868 v -6.75855 H 63.312909 V 55.65507 h 7.309893 v 6.758526 h 7.309868 v 6.75855 h 7.309871 v -6.75855 H 77.93267 v 6.75855 h 7.309871 v -6.75855 h 7.309863 V 55.65507 h 7.309866 v -6.758525 h 7.30988 v -6.75852 h -7.30988 v 6.75852 h -7.309866 v -6.75852 H 99.86227 V 35.379507 H 92.552404 V 28.620978 H 85.242541 V 21.862456 H 77.93267 v -6.758545 h 7.309871 v 6.758545 h 7.309863 v 6.758522 H 85.242541 V 21.862456 H 77.93267 v 6.758522 h -7.309868 v -6.758522 h 7.309868 v -6.758545 h -7.309868 v 6.758545 h 7.309868 v 6.758522 h -7.309868 v 6.758529 h -7.309893 v -6.758529 h 7.309893 v 6.758529 h -7.309893 v 6.758518 H 56.003038 V 35.379507 H 48.693172 V 28.620978 H 41.3833 v 6.758529 h 7.309872 V 28.620978 H 41.3833 v -6.758522 h 7.309872 V 15.103911 H 41.3833 v 6.758545 h -7.309871 v 6.758522 h -7.309868 v 6.758529 H 19.453696 V 28.620978 H 12.1438 v -6.758522 h 7.309896 v 6.758522 h 7.309865 v -6.758522 h 7.309868 v 6.758522 h -7.309868 v 6.758529 h -7.309865 v 6.758518 h 7.309865 v 6.75852 H 19.453696 V 55.65507 H 12.1438 V 48.896545 H 4.8339329 v 6.758525 h -7.3098681 v -6.758525 h -7.3098681 v -6.75852 h 7.3098681 v 6.75852 H 4.8339329 V 55.65507 H 12.1438 v -6.758525 h 7.309896 V 55.65507 H 12.1438 v 6.758526 h 7.309896 V 55.65507 h 7.309865 v 6.758526 h 7.309868 V 55.65507 h -7.309868 v -6.758525 h -7.309865 v -6.75852 h 7.309865 v 6.75852 h 7.309868 v -6.75852 h -7.309868 v 6.75852 h 7.309868 V 55.65507 H 41.3833 v -6.758525 h -7.309871 v -6.75852 H 41.3833 v -6.758518 h 7.309872 V 28.620978 H 41.3833 v 6.758529 h -7.309871 v 6.758518 h -7.309868 v 6.75852 h -7.309865 v 6.758525 h 7.309865 v -6.758525 h 7.309868 V 55.65507 H 41.3833 v -6.758525 h -7.309871 v -6.75852 H 26.763561 V 35.379507 H 19.453696 V 28.620978 H 12.1438 V 21.862456 H 4.8339329 v -6.758545 h -7.3098681 v 6.758545 h 7.3098681 v 6.758522 H 12.1438 v -6.758522 h 7.309896 V 15.103911 H 12.1438 v 6.758545 H 4.8339329 V 15.103911 H 12.1438 v 6.758545 h 7.309896 V 15.103911 H 12.1438 v 6.758545 H 4.8339329 V 15.103911 H 12.1438 v 6.758545 h 7.309896 v 6.758522 h 7.309865 v -6.758522 h 7.309868 V 15.103911 H 26.763561 V 8.345385 h -7.309865 v 6.758526 h 7.309865 v 6.758545 H 19.453696 V 15.103911 H 12.1438 V 8.345385 H 4.8339329 v 6.758526 H 12.1438 V 8.345385 H 4.8339329 v 6.758526 H -2.4759352 V 8.345385 h -7.3098681 v 6.758526 h 7.3098681 V 8.345385 h 7.3098681 v 6.758526 H 12.1438 V 8.345385 h 7.309896 V 1.5868631 H 12.1438 V -5.171666 H 4.8339329 V 1.5868631 H -2.4759352 V 8.345385 H -9.7858033 V 1.5868631 h 7.3098681 V 8.345385 h -7.3098681 v 6.758526 h -7.3098677 v 6.758545 h -7.309865 v -6.758545 h 7.309865"
       inkscape:export-xdpi="500"
       inkscape:export-ydpi="500" />
  </a>
  <flowRoot
     xml:space="preserve"
     id="flowRoot5135"
     style="font-style:normal;font-weight:normal;font-size:5.04921341px;line-height:1.25;font-family:sans-serif;letter-spacing:0px;word-spacing:0px;fill:#000000;fill-opacity:1;stroke:none;stroke-width:0.12623033"
     transform="matrix(0.99805063,0,0,0.99805063,53.209449,1.2094449)"
     inkscape:export-xdpi="500"
     inkscape:export-ydpi="500"><flowRegion
       id="flowRegion5137"
       style="stroke-width:0.12623033"><rect
         id="rect5139"
         width="2.5165687"
         height="5.2267194"
         x="46.653313"
         y="9.7266636"
         style="stroke-width:0.0159341" /></flowRegion><flowPara
       id="flowPara5141"
       style="stroke-width:0.12623033" /></flowRoot></svg>
