<?xml version="1.0" encoding="UTF-8" standalone="no"?>
<svg
   xmlns:dc="http://purl.org/dc/elements/1.1/"
   xmlns:cc="http://creativecommons.org/ns#"
   xmlns:rdf="http://www.w3.org/1999/02/22-rdf-syntax-ns#"
   xmlns:svg="http://www.w3.org/2000/svg"
   xmlns="http://www.w3.org/2000/svg"
   xmlns:sodipodi="http://sodipodi.sourceforge.net/DTD/sodipodi-0.dtd"
   xmlns:inkscape="http://www.inkscape.org/namespaces/inkscape"
   style="font-style:normal;font-weight:normal;font-size:12px;font-family:Dialog;color-interpolation:auto;fill:#000000;fill-opacity:1;stroke:#000000;stroke-width:1;stroke-linecap:square;stroke-linejoin:miter;stroke-miterlimit:10;stroke-dasharray:none;stroke-dashoffset:0;stroke-opacity:1;color-rendering:auto;image-rendering:auto;shape-rendering:auto;text-rendering:auto;enable-background:new"
   width="78.009453"
   height="78.009453"
   version="1.1"
   id="svg54"
   sodipodi:docname="rw_logo.svg"
   inkscape:version="0.92.4 (5da689c313, 2019-01-14)">
  <metadata
     id="metadata58">
    <rdf:RDF>
      <cc:Work
         rdf:about="">
        <dc:format>image/svg+xml</dc:format>
        <dc:type
           rdf:resource="http://purl.org/dc/dcmitype/StillImage" />
      </cc:Work>
    </rdf:RDF>
  </metadata>
  <sodipodi:namedview
     pagecolor="#ffffff"
     bordercolor="#666666"
     borderopacity="1"
     objecttolerance="10"
     gridtolerance="10"
     guidetolerance="10"
     inkscape:pageopacity="0"
     inkscape:pageshadow="2"
     inkscape:window-width="1920"
     inkscape:window-height="1017"
     id="namedview56"
     showgrid="false"
     inkscape:zoom="5.2166086"
     inkscape:cx="66.067911"
     inkscape:cy="26.321149"
     inkscape:window-x="-8"
     inkscape:window-y="-8"
     inkscape:window-maximized="1"
     inkscape:current-layer="svg54" />
  <!--Generated by the Batik Graphics2D SVG Generator-->
  <defs
     id="genericDefs" />
  <circle
     style="display:inline;opacity:1;fill:#39bafa;fill-opacity:1;fill-rule:nonzero;stroke:#ffffff;stroke-width:2.41889787;stroke-miterlimit:4;stroke-dasharray:none;stroke-opacity:1;paint-order:fill markers stroke"
     id="path65"
     cx="39.004726"
     cy="39.004726"
     r="37.795277"
     inkscape:export-xdpi="500"
     inkscape:export-ydpi="500" />
  <path
     clip-path="none"
     inkscape:label="path48"
     inkscape:connector-curvature="0"
     id="path4625"
     style="display:inline;fill:none;fill-opacity:0.85427091;fill-rule:evenodd;stroke:#ffffff;stroke-width:0.97976464;stroke-miterlimit:10;stroke-dasharray:none;stroke-opacity:1"
     d="m 39.515026,62.562297 h 3.819082 v 3.819084 h 3.81908 v -3.819084 h -3.81908 v 3.819084 h -3.819082 v 3.819079 h 3.819082 v -3.819079 h -3.819082 v -3.819084 h -3.819082 v -3.819078 h -3.819081 v 3.819078 h 3.819081 v -3.819078 h 3.819082 v 3.819078 h 3.819082 v 3.819084 h 3.81908 v -3.819084 h -3.81908 v -3.819078 h 3.81908 v 3.819078 h -3.81908 v 3.819084 h 3.81908 v -3.819084 h 3.819082 v 3.819084 h -3.819082 v -3.819084 h 3.819082 v -3.819078 h 3.819094 V 54.924124 H 50.97227 v -3.819083 h 3.819094 v -3.819082 h 3.81908 V 43.46688 h 3.819082 v 3.819079 h -3.819082 v 3.819082 h -3.81908 v -3.819082 h 3.81908 v 3.819082 h 3.819082 v 3.819083 h -3.819082 v 3.819095 h -3.81908 v 3.819078 H 50.97227 v -3.819078 h 3.819094 v -3.819095 h 3.81908 v 3.819095 h -3.81908 V 54.924124 H 50.97227 v -3.819083 h 3.819094 v 3.819083 h 3.81908 v 3.819095 h 3.819082 v -3.819095 h -3.819082 v 3.819095 h 3.819082 v -3.819095 h 3.819079 v -3.819083 h 3.819079 v -3.819082 h 3.819084 V 43.46688 h -3.819084 v 3.819079 H 66.248605 V 43.46688 h 3.819079 v -3.819079 h -3.819079 v -3.819083 h -3.819079 v -3.81908 h -3.819082 v -3.819093 h 3.819082 v 3.819093 h 3.819079 v 3.81908 h -3.819079 v -3.81908 h -3.819082 v 3.81908 h -3.81908 v -3.81908 h 3.81908 v -3.819093 h -3.81908 v 3.819093 h 3.81908 v 3.81908 h -3.81908 v 3.819083 H 50.97227 v -3.819083 h 3.819094 v 3.819083 H 50.97227 v 3.819079 h -3.819082 v -3.819079 h -3.81908 v -3.819083 h -3.819082 v 3.819083 h 3.819082 v -3.819083 h -3.819082 v -3.81908 h 3.819082 v -3.819093 h -3.819082 v 3.819093 h -3.819082 v 3.81908 h -3.819081 v 3.819083 h -3.819079 v -3.819083 h -3.819095 v -3.81908 h 3.819095 v 3.81908 h 3.819079 v -3.81908 h 3.819081 v 3.81908 h -3.819081 v 3.819083 h -3.819079 v 3.819079 h 3.819079 v 3.819079 h -3.819079 v 3.819082 h -3.819095 v -3.819082 h -3.819081 v 3.819082 H 16.600527 V 47.285959 H 12.781446 V 43.46688 h 3.819081 v 3.819079 h 3.819081 v 3.819082 h 3.819081 v -3.819082 h 3.819095 v 3.819082 h -3.819095 v 3.819083 h 3.819095 v -3.819083 h 3.819079 v 3.819083 h 3.819081 V 51.105041 H 31.876863 V 47.285959 H 28.057784 V 43.46688 h 3.819079 v 3.819079 h 3.819081 V 43.46688 h -3.819081 v 3.819079 h 3.819081 v 3.819082 h 3.819082 V 47.285959 H 35.695944 V 43.46688 h 3.819082 v -3.819079 h 3.819082 v -3.819083 h -3.819082 v 3.819083 h -3.819082 v 3.819079 h -3.819081 v 3.819079 h -3.819079 v 3.819082 h 3.819079 v -3.819082 h 3.819081 v 3.819082 h 3.819082 V 47.285959 H 35.695944 V 43.46688 h -3.819081 v -3.819079 h -3.819079 v -3.819083 h -3.819095 v -3.81908 h -3.819081 v -3.819093 h -3.819081 v 3.819093 h 3.819081 v 3.81908 h 3.819081 v -3.81908 h 3.819095 v -3.819093 h -3.819095 v 3.819093 h -3.819081 v -3.819093 h 3.819081 v 3.819093 h 3.819095 v -3.819093 h -3.819095 v 3.819093 h -3.819081 v -3.819093 h 3.819081 v 3.819093 h 3.819095 v 3.81908 h 3.819079 v -3.81908 h 3.819081 v -3.819093 h -3.819081 v -3.819082 h -3.819079 v 3.819082 h 3.819079 v 3.819093 h -3.819079 v -3.819093 h -3.819095 v -3.819082 h -3.819081 v 3.819082 h 3.819081 v -3.819082 h -3.819081 v 3.819082 h -3.819081 v -3.819082 h -3.819081 v 3.819082 h 3.819081 v -3.819082 h 3.819081 v 3.819082 h 3.819081 v -3.819082 h 3.819095 V 20.552382 H 24.238689 V 16.7333 h -3.819081 v 3.819082 h -3.819081 v 3.819081 h -3.819081 v -3.819081 h 3.819081 v 3.819081 h -3.819081 v 3.819082 h -3.81908 v 3.819093 h -3.81908 v -3.819093 h 3.81908"
     inkscape:export-xdpi="500"
     inkscape:export-ydpi="500" />
  <text
     xml:space="preserve"
     style="font-style:normal;font-weight:normal;font-size:5.03937054px;line-height:1.25;font-family:sans-serif;letter-spacing:0px;word-spacing:0px;fill:#000000;fill-opacity:1;stroke:none;stroke-width:0.12598427"
     x="37.959267"
     y="24.754015"
     id="text5133"
     inkscape:export-xdpi="500"
     inkscape:export-ydpi="500"><tspan
       sodipodi:role="line"
       id="tspan5131"
       x="37.959267"
       y="24.754015"
       style="font-size:10.75065708px;fill:#ffffff;stroke-width:0.12598427">RW</tspan></text>
  <flowRoot
     xml:space="preserve"
     id="flowRoot5135"
     style="font-style:normal;font-weight:normal;font-size:5.04921341px;line-height:1.25;font-family:sans-serif;letter-spacing:0px;word-spacing:0px;fill:#000000;fill-opacity:1;stroke:none;stroke-width:0.12623033"
     transform="matrix(0.99805063,0,0,0.99805063,1.2094489,1.2094477)"
     inkscape:export-xdpi="500"
     inkscape:export-ydpi="500"><flowRegion
       id="flowRegion5137"
       style="stroke-width:0.12623033"><rect
         id="rect5139"
         width="2.5165687"
         height="5.2267194"
         x="46.653313"
         y="9.7266636"
         style="stroke-width:0.0159341" /></flowRegion><flowPara
       id="flowPara5141"
       style="stroke-width:0.12623033"></flowPara></flowRoot>  <path
     style="fill:#ffffff;stroke:#ffffff;stroke-width:0.87538898;stroke-linecap:butt;stroke-linejoin:miter;stroke-miterlimit:10;stroke-dasharray:none;stroke-opacity:1"
     d="m 32.342412,24.324673 7.710343,0.002"
     id="path5143"
     inkscape:connector-curvature="0"
     sodipodi:nodetypes="cc"
     inkscape:export-xdpi="500"
     inkscape:export-ydpi="500" />
  <path
     style="font-style:normal;font-weight:normal;font-size:12px;font-family:Dialog;color-interpolation:auto;fill:#ffffff;fill-opacity:1;stroke:#ffffff;stroke-width:0.8743211;stroke-linecap:butt;stroke-linejoin:miter;stroke-miterlimit:10;stroke-dasharray:none;stroke-dashoffset:0;stroke-opacity:1;color-rendering:auto;image-rendering:auto;shape-rendering:auto;text-rendering:auto;enable-background:new"
     d="m 44.129118,24.362946 5.001808,0.0031"
     id="path5143-4"
     inkscape:connector-curvature="0"
     sodipodi:nodetypes="cc"
     inkscape:export-xdpi="500"
     inkscape:export-ydpi="500" />
</svg>
