<?xml version="1.0" encoding="UTF-8" standalone="no"?>
<!-- Created with Inkscape (http://www.inkscape.org/) -->

<svg
   xmlns:dc="http://purl.org/dc/elements/1.1/"
   xmlns:cc="http://creativecommons.org/ns#"
   xmlns:rdf="http://www.w3.org/1999/02/22-rdf-syntax-ns#"
   xmlns:svg="http://www.w3.org/2000/svg"
   xmlns="http://www.w3.org/2000/svg"
   xmlns:sodipodi="http://sodipodi.sourceforge.net/DTD/sodipodi-0.dtd"
   xmlns:inkscape="http://www.inkscape.org/namespaces/inkscape"
   width="65mm"
   height="65mm"
   viewBox="0 0 65 65"
   version="1.1"
   id="svg8"
   inkscape:version="0.92.4 (5da689c313, 2019-01-14)"
   sodipodi:docname="arrow.svg"
   inkscape:export-filename="F:\PC\Document Files\UNN\Scientific work\Levy\Game_client\RWGame\RWGame\RWGame\Images\arrow_up.png"
   inkscape:export-xdpi="100"
   inkscape:export-ydpi="100">
  <defs
     id="defs2">
    <inkscape:path-effect
       effect="roughen"
       id="path-effect14438"
       is_visible="true"
       method="segments"
       max_segment_size="2"
       segments="3"
       displace_x="0.1;1967451448"
       displace_y="0.2;1"
       global_randomize="1;1"
       handles="along"
       shift_nodes="true"
       fixed_displacement="false"
       spray_tool_friendly="false" />
    <marker
       inkscape:stockid="Arrow1Lend"
       orient="auto"
       refY="0.0"
       refX="0.0"
       id="marker1301"
       style="overflow:visible;"
       inkscape:isstock="true">
      <path
         id="path1299"
         d="M 0.0,0.0 L 5.0,-5.0 L -12.5,0.0 L 5.0,5.0 L 0.0,0.0 z "
         style="fill-rule:evenodd;stroke:#000000;stroke-width:1pt;stroke-opacity:1;fill:#000000;fill-opacity:1"
         transform="scale(0.8) rotate(180) translate(12.5,0)" />
    </marker>
    <marker
       inkscape:stockid="Arrow1Lend"
       orient="auto"
       refY="0.0"
       refX="0.0"
       id="Arrow1Lend"
       style="overflow:visible;"
       inkscape:isstock="true">
      <path
         id="path832"
         d="M 0.0,0.0 L 5.0,-5.0 L -12.5,0.0 L 5.0,5.0 L 0.0,0.0 z "
         style="fill-rule:evenodd;stroke:#000000;stroke-width:1pt;stroke-opacity:1;fill:#000000;fill-opacity:1"
         transform="scale(0.8) rotate(180) translate(12.5,0)" />
    </marker>
    <marker
       inkscape:stockid="Arrow1Lstart"
       orient="auto"
       refY="0.0"
       refX="0.0"
       id="Arrow1Lstart"
       style="overflow:visible"
       inkscape:isstock="true">
      <path
         id="path829"
         d="M 0.0,0.0 L 5.0,-5.0 L -12.5,0.0 L 5.0,5.0 L 0.0,0.0 z "
         style="fill-rule:evenodd;stroke:#000000;stroke-width:1pt;stroke-opacity:1;fill:#000000;fill-opacity:1"
         transform="scale(0.8) translate(12.5,0)" />
    </marker>
    <marker
       inkscape:stockid="Arrow2Mend"
       orient="auto"
       refY="0.0"
       refX="0.0"
       id="Arrow2Mend"
       style="overflow:visible;"
       inkscape:isstock="true">
      <path
         id="path856"
         style="fill-rule:evenodd;stroke-width:0.625;stroke-linejoin:round;stroke:#000000;stroke-opacity:1;fill:#000000;fill-opacity:1"
         d="M 8.7185878,4.0337352 L -2.2072895,0.016013256 L 8.7185884,-4.0017078 C 6.9730900,-1.6296469 6.9831476,1.6157441 8.7185878,4.0337352 z "
         transform="scale(0.6) rotate(180) translate(0,0)" />
    </marker>
    <marker
       inkscape:stockid="Arrow1Send"
       orient="auto"
       refY="0.0"
       refX="0.0"
       id="Arrow1Send"
       style="overflow:visible;"
       inkscape:isstock="true">
      <path
         id="path844"
         d="M 0.0,0.0 L 5.0,-5.0 L -12.5,0.0 L 5.0,5.0 L 0.0,0.0 z "
         style="fill-rule:evenodd;stroke:#000000;stroke-width:1pt;stroke-opacity:1;fill:#000000;fill-opacity:1"
         transform="scale(0.2) rotate(180) translate(6,0)" />
    </marker>
    <marker
       inkscape:stockid="Arrow2Lend"
       orient="auto"
       refY="0.0"
       refX="0.0"
       id="Arrow2Lend"
       style="overflow:visible;"
       inkscape:isstock="true">
      <path
         id="path850"
         style="fill-rule:evenodd;stroke-width:0.625;stroke-linejoin:round;stroke:#ffffff;stroke-opacity:1;fill:#ffffff;fill-opacity:1"
         d="M 8.7185878,4.0337352 L -2.2072895,0.016013256 L 8.7185884,-4.0017078 C 6.9730900,-1.6296469 6.9831476,1.6157441 8.7185878,4.0337352 z "
         transform="scale(1.1) rotate(180) translate(1,0)" />
    </marker>
  </defs>
  <sodipodi:namedview
     id="base"
     pagecolor="#ffffff"
     bordercolor="#666666"
     borderopacity="1.0"
     inkscape:pageopacity="0.0"
     inkscape:pageshadow="2"
     inkscape:zoom="0.98994949"
     inkscape:cx="-209.9429"
     inkscape:cy="39.680075"
     inkscape:document-units="mm"
     inkscape:current-layer="g8308"
     showgrid="false"
     inkscape:window-width="1920"
     inkscape:window-height="1017"
     inkscape:window-x="-8"
     inkscape:window-y="-8"
     inkscape:window-maximized="1"
     inkscape:pagecheckerboard="true" />
  <metadata
     id="metadata5">
    <rdf:RDF>
      <cc:Work
         rdf:about="">
        <dc:format>image/svg+xml</dc:format>
        <dc:type
           rdf:resource="http://purl.org/dc/dcmitype/StillImage" />
        <dc:title />
      </cc:Work>
    </rdf:RDF>
  </metadata>
  <g
     inkscape:label="Layer 1"
     inkscape:groupmode="layer"
     id="layer1"
     transform="translate(30.102706,-146.01793)" />
  <g
     id="g8308"
     transform="matrix(2.9748618,0,0,2.9748618,-49.400178,-48.690594)">
    <path
       style="fill:#99897d;fill-opacity:1;stroke:#ffffff;stroke-width:1.55671096;stroke-miterlimit:4;stroke-dasharray:none;stroke-opacity:1"
       d="m 28.592987,19.786879 c 0.03111,0.05094 0.09955,0.03505 0.126921,0.08712 0.07801,-0.05875 -0.0038,0.144319 0.0104,0.244618 0.0089,0.06272 0.05473,0.284533 0.0688,0.324614 0.0095,0.02732 0.04458,0.07286 0.05534,0.08142 0.02439,0.03256 0.02535,0.03055 0.02535,0.03055 0.02152,0.01711 -0.0249,-0.09849 -0.01108,-0.03766 0.0069,0.03042 -0.03537,0.216217 -0.0265,0.255697 -0.04062,0.194487 0.06669,0.100091 0.08995,0.10497 0.01709,0.0036 0.0012,-0.04151 0.0052,-0.0118 0.0047,0.03507 -0.02866,0.05092 -0.02442,0.08737 -0.03311,0.02067 0.0077,0.09583 0.02195,0.144239 0.01146,0.03893 0.05161,0.06923 0.05406,0.106032 0.0027,0.04128 0.0083,0.188549 0.008,0.23244 0.0049,0.116762 -0.01927,-0.125307 -0.01962,-0.116446 -0.0022,0.05549 0.059,0.202218 0.06106,0.286812 0.0012,0.04905 -0.04714,0.06832 -0.05361,0.120872 -0.05094,0.02566 -0.02576,0.129531 -0.02104,0.199051 0.0039,0.05802 0.02994,0.116425 0.02994,0.169537 l 0.0467,0.569737 -0.01121,0.49992 -0.03908,0.614578 c 0.296742,0.01459 0.565222,0.01804 0.861104,0.03135 0.272736,0.0031 0.675748,0.04252 0.982743,0.05789 0.297597,0.0149 0.522617,0.01505 0.813224,0.02716 0.109756,0.0046 0.218687,0.02333 0.326339,0.0278 0.107677,0.0187 0.203401,-0.09113 0.308214,-0.09034 0.104866,7.91e-4 0.241529,0.158051 0.34291,0.162265 0.101356,0.0042 0.203655,-0.104 0.298727,-0.108506 0.103473,-0.11047 0.16832,-0.05788 0.262485,-0.03462 0.0875,0.02161 0.22503,0.117229 0.314092,0.122258 0.09246,0.0052 0.1767,-0.08335 0.262292,-0.07716 0.08753,-0.08771 0.168427,0.07267 0.257399,0.105232 0.0777,0.02844 0.09851,0.067 0.175947,0.07409 0.08305,0.0076 0.08758,-0.01649 0.177604,-0.0142 0.01756,-0.0248 0.182137,0.01898 0.302694,0.03138 0.09196,0.0095 0.201907,-0.03145 0.265211,-0.02162 0.07315,0.01135 0.114939,0.0856 0.188638,0.105234 0.04534,0.07788 0.178288,0.03813 0.260862,0.04556 0.0735,0.0066 0.03544,-0.02146 0.09454,-0.0059 0.06274,0.01648 0.116538,0.04017 0.189719,0.06233 0.05798,0.02641 0.08673,-0.02665 0.162823,-0.0024 0.07109,0.02267 0.248134,0.143304 0.298212,0.165495 0.05184,0.02297 0.09379,0.199446 0.135935,0.221307 0.04678,0.181108 0.135581,0.136627 0.182356,0.122469 0.03153,-0.0095 -0.0047,-0.332479 0.02789,-0.307647 0.04044,0.03084 0.07411,0.02547 0.114972,0.08602 0.03714,0.0093 0.08984,0.153433 0.132118,0.238255 0.03414,0.06849 0.0584,0.09899 0.0839,0.134802 0.04738,0.06656 0.09785,0.137672 0.141882,0.212988 0.0484,0.07384 0.08453,0.129001 0.122751,0.207096 0.03833,0.07831 0.04704,0.16405 0.08049,0.238335 0.03341,0.07418 0.115788,0.130802 0.148636,0.209392 0.0818,0.05981 0.0323,0.155374 0.04872,0.242505 0.01573,0.08347 0.04432,0.32104 0.06359,0.398299 0.01969,0.07895 0.03924,0.147564 0.05516,0.206427 0.01726,0.0629 -0.03927,0.01966 -0.02832,0.07695 0.01127,0.05896 0.08849,0.1458 0.0948,0.227828 0.0062,0.08087 -0.03505,0.201247 -0.0333,0.292207 -0.04357,0.117927 0.02005,0.17131 0.02842,0.249832 0.0093,0.08745 0.0068,0.181386 -5.84e-4,0.265618 -0.007,0.07993 -0.0065,0.168825 -0.01763,0.245759 -0.0014,0.08641 -0.06698,0.270666 -0.08442,0.342272 -0.0181,0.0743 0.01972,0.08095 -6.34e-4,0.15849 -0.01998,0.07614 0.02405,0.184302 -0.0028,0.250256 0.04025,0.107514 -0.07324,-0.0036 -0.123208,0.05244 -0.04639,0.05204 -0.06121,0.340752 -0.09269,0.407659 -0.0327,0.06949 -0.100471,0.06964 -0.142695,0.120154 -0.07424,-0.0017 -0.09254,0.236721 -0.134641,0.302799 -0.03643,0.05718 -0.02446,-0.08403 -0.06637,-0.02837 -0.04517,0.05998 -0.120432,0.115067 -0.176067,0.183297 -0.07835,0.05544 -0.102376,0.15215 -0.15573,0.218725 -0.05441,0.0679 -0.0466,0.185374 -0.104554,0.233464 -0.02016,0.01673 -0.05146,-0.04173 -0.08864,-0.03602 -0.04099,-0.06087 -0.0743,-0.0061 -0.122549,0.01798 -0.03929,0.01962 -0.0686,0.07296 -0.104235,0.08543 -0.0397,0.01389 -0.103068,-0.04598 -0.152197,-0.03263 -0.07028,-0.05935 -0.104092,-0.113141 -0.157607,-0.08041 -0.04694,0.02871 -0.09317,0.167698 -0.145287,0.178221 -0.05577,0.01126 -0.09228,-0.01555 -0.152926,0.0023 -0.0436,-0.02394 -0.137304,0.05505 -0.213483,0.08467 -0.06498,0.02526 -0.104664,-0.05886 -0.167594,-0.05071 -0.06835,0.0088 -0.166059,-0.04706 -0.242158,-0.02351 -0.102868,-0.05166 -0.131852,-0.02433 -0.207311,0.01851 -0.07072,0.04015 -0.164263,0.271155 -0.239217,0.277589 -0.07747,0.0067 -0.13896,-0.03311 -0.218588,-0.04177 -0.06513,-0.04404 -0.173554,-0.0113 -0.262228,-0.01163 -0.08301,-3.13e-4 -0.20155,0.01288 -0.281913,0.01739 -0.0831,0.0047 -0.17085,0.16773 -0.249395,0.170016 -0.09625,0.162596 -0.170528,-0.08354 -0.257573,-0.125762 -0.06831,-0.03314 -0.08756,0.03847 -0.162546,0.04102 -0.08527,0.0029 -0.178431,0.06737 -0.271426,0.06034 -0.09757,0.06166 -0.191467,0.01399 -0.285956,-0.01133 -0.08937,-0.02395 -0.186532,-0.114758 -0.268148,-0.113452 -0.08395,0.0013 -0.148242,-0.065 -0.229663,-0.06116 -0.0686,-0.06557 -0.175548,0.01097 -0.265352,0.03292 -0.07874,0.01925 -0.107088,-0.01381 -0.181056,-0.01381 l -0.798256,0.01522 -0.877376,-0.136443 -0.881766,0.184887 -0.0062,0.547347 -0.03994,0.543808 0.113248,0.547577 c -0.0073,0.104715 0.01161,0.160839 0.0062,0.255299 0.01898,0.05895 0.02368,0.180117 0.0115,0.284623 -0.01043,0.08952 -0.07288,0.287454 -0.07879,0.363029 -0.0064,0.0819 -0.09337,0.148307 -0.100297,0.21453 -0.08794,0.06469 -0.0023,0.130247 0.0092,0.197036 0.01052,0.06076 0.0096,0.129471 -0.0023,0.19682 -0.01247,0.07069 0.04681,0.144649 0.03514,0.211125 0.05822,0.07636 -0.07094,0.181191 -0.104453,0.246192 -0.02931,0.05685 0.0151,-0.03064 -0.0019,0.02428 -0.01822,0.05886 -0.07097,0.0061 -0.09824,0.07565 -0.06068,-0.03779 -0.06249,0.160808 -0.08849,0.270353 -0.01764,0.07433 -0.03257,0.268293 -0.0517,0.305808 -0.02366,0.0464 -0.01155,0.14686 -0.03678,0.177396 0.0093,0.09778 -0.04071,0.07793 -0.07969,0.08893 -0.03334,0.0094 -0.09159,-0.0094 -0.118124,0.02135 -0.02878,0.03332 -0.05139,0.06161 -0.08188,0.08944 -0.02429,0.02656 -0.07795,0.157664 -0.11279,0.181993 -0.03294,0.023 -0.02212,-0.07366 -0.05475,-0.0546 -0.03357,0.0196 -0.0658,0.01884 -0.105626,0.03598 -0.03597,-0.0018 -0.03707,0.102022 -0.0817,0.119802 -0.04075,0.01623 -0.07381,0.02556 -0.110128,0.03058 -0.03805,0.0053 -0.03847,-0.118081 -0.08639,-0.126452 -0.01267,-0.129647 -0.163028,0.09702 -0.234011,0.11548 -0.04764,0.01239 -0.100446,-0.09619 -0.134348,-0.103985 -0.04639,-0.01067 -0.03339,-0.01002 -0.09783,-0.03553 -0.0032,-0.01026 -0.185514,-0.141648 -0.300698,-0.197246 -0.09434,-0.04554 -0.171565,0.09218 -0.270847,0.03232 -0.110253,-0.06647 -0.262642,-0.08602 -0.391907,-0.185721 -0.163644,-0.03341 -0.274184,-0.204517 -0.413616,-0.337824 -0.133533,-0.127666 -0.30785,-0.394131 -0.459265,-0.499089 -0.15476,-0.107277 -0.308866,-0.148072 -0.467638,-0.249581 -0.161907,-0.04451 -0.324938,-0.248875 -0.497771,-0.378168 -0.162893,-0.121856 -0.33404,-0.272338 -0.508629,-0.401487 -0.179917,-0.133091 -0.361476,-0.250116 -0.545845,-0.381871 -0.184401,-0.118483 -0.361473,-0.153001 -0.549346,-0.292884 -0.185351,-0.138005 -0.396258,-0.333615 -0.580725,-0.476552 -0.185722,-0.14391 -0.410163,-0.36817 -0.591512,-0.521516 -0.211262,-0.217005 -0.302457,-0.291146 -0.459303,-0.41722 -0.177017,-0.142288 -0.37317,-0.199709 -0.555749,-0.347887 -0.172177,-0.139735 -0.252913,-0.300876 -0.417007,-0.445201 -0.08344,-0.167261 -0.389456,-0.13361 -0.571947,-0.272978 -0.166599,-0.127231 -0.211064,-0.438553 -0.344005,-0.553631 -0.13928,-0.120565 -0.263167,-0.233759 -0.400227,-0.340699 -0.121069,-0.108572 -0.277949,-0.206798 -0.403617,-0.303649 -0.121892,-0.09394 -0.212469,-0.190848 -0.298174,-0.275931 -0.08703,-0.0864 -0.166928,-0.179697 -0.235054,-0.250782 -0.06728,-0.08336 -0.07488,-0.03421 -0.118351,-0.08436 -0.046,-0.05307 -0.08651,-0.194622 -0.102379,-0.232916 -0.02556,-0.06168 -0.05506,-0.08188 -0.08247,-0.139932 -0.0313,-0.02385 -0.03922,-0.122535 -0.06316,-0.193592 -0.02003,-0.05946 -0.03864,-0.135958 -0.04998,-0.185602 -0.01245,-0.05448 0.01238,-0.221185 0.0027,-0.27372 0.0318,-0.139867 -0.03868,-0.07581 -0.04575,-0.09122 -0.02111,-0.046 0.04833,-0.08045 0.05565,-0.159022 0.0049,-0.05244 0.01163,-0.162162 0.01328,-0.207464 0.0072,-0.09278 -0.0071,-0.09363 -0.0046,-0.114198 0.0052,-0.04177 0.05804,-0.0088 0.09345,-0.08324 0.02643,-0.05556 -0.0055,-0.09848 0.02437,-0.160061 -0.02608,-0.05094 0.07736,-0.135424 0.136556,-0.210412 0.04897,-0.06203 0.113478,-0.04451 0.160731,-0.10231 0.05219,-0.06383 0.113671,-0.09572 0.17498,-0.176275 0.06902,-0.0408 0.08578,-0.127036 0.159478,-0.227094 0.06737,-0.09147 0.177106,-0.227592 0.255582,-0.301389 0.08216,-0.07726 0.181108,-0.148391 0.27548,-0.233174 0.104748,-0.07447 0.186067,-0.148696 0.289093,-0.242123 0.103248,-0.09363 0.197086,-0.226261 0.313562,-0.32221 0.116351,-0.09585 0.279302,-0.207634 0.411048,-0.309404 0.165086,-0.11145 0.255798,-0.175761 0.385347,-0.277796 0.139586,-0.109941 0.363404,-0.259382 0.523933,-0.38343 0.154757,-0.119588 0.348124,-0.240462 0.504348,-0.366945 0.193534,-0.121968 0.269128,-0.258899 0.424975,-0.391849 0.163516,-0.139492 0.339048,-0.289201 0.541167,-0.441253 0.100919,-0.07592 0.245812,-0.211408 0.350177,-0.284599 0.134836,-0.127045 0.188414,-0.119683 0.272363,-0.170811 0.103081,-0.06278 0.233917,-0.12227 0.341939,-0.202318 0.098,-0.07262 0.185282,-0.104149 0.275945,-0.17527 0.0889,-0.03379 0.177205,-0.02352 0.271461,-0.106406 0.08652,-0.07609 0.191577,-0.348495 0.280404,-0.413315 0.0928,-0.06772 0.223062,-0.130774 0.312576,-0.187233 0.123389,-0.05627 0.166445,0.03219 0.23911,-0.01793 0.08205,-0.05659 0.228521,-0.253205 0.319014,-0.318132 0.08532,-0.06121 0.114407,-0.06676 0.185684,-0.124786 0.03272,-0.01055 0.104308,-0.111301 0.193025,-0.187302 0.07091,-0.06074 0.184422,-0.120506 0.25155,-0.167687 0.07556,-0.05311 0.178831,-0.205847 0.253718,-0.260545 0.09072,-0.144018 0.09332,-0.074 0.148482,-0.0981 0.07494,-0.03274 0.142914,0.02993 0.216084,-0.02006 0.06352,-0.0434 0.0964,-0.05309 0.159857,-0.105952 0.03781,-0.01623 0.06991,8.82e-4 0.142128,-0.06313 0.05948,-0.05272 0.220727,-0.22471 0.265166,-0.253691 0.0492,-0.03208 0.05711,-0.133769 0.09686,-0.162654 0.0079,-0.102518 0.08751,0.02656 0.134239,0.0194 0.03872,-0.0059 0.08099,-0.08785 0.110531,-0.105228 0.07942,-0.05164 0.170496,-0.212679 0.263146,-0.236457 0.101215,-0.149025 0.237869,0.115132 0.336034,0.154032 0.08454,0.0335 0.150045,-0.08258 0.222653,-0.05466 0.05592,0.02938 0.129314,0.117659 0.175449,0.165174 0.06217,0.08665 0.07164,0.06089 0.101166,0.09575 0.04052,0.04783 0.07892,0.157317 0.12221,0.209125 0.05811,0.09376 0.09118,0.139792 0.115678,0.16089 0.02455,0.02893 0.04908,0.13763 0.07445,0.161271 0.02688,0.02505 0.06024,-0.09612 0.127412,0.0209 z"
       id="path8310"
       inkscape:connector-curvature="0"
       sodipodi:nodetypes="ccsssscccssssssssssssssssssssssscccsssssssssssssssssssssssssssssscccc"
       inkscape:path-effect="#path-effect14438"
       inkscape:original-d="m 28.587723,19.842128 c 0.09333,0.15281 0.171002,0.312388 0.225872,0.468655 0.02857,0.08195 0.05296,0.167384 0.07369,0.258629 0.02073,0.09125 0.03781,0.188305 0.05177,0.293515 0.01396,0.10521 0.02479,0.218571 0.03304,0.342417 0.0082,0.123846 0.0139,0.258179 0.01749,0.405333 0.0036,0.147154 0.0051,0.30713 0.0051,0.482264 v 1.694492 c 0.885585,0.03688 1.771168,0.07378 2.656753,0.11066 0.32927,0.01372 0.646315,0.02586 0.950382,0.0385 0.304068,0.01263 0.595159,0.02575 0.872521,0.04141 0.277363,0.01566 0.540998,0.03386 0.790154,0.05667 0.249156,0.0228 0.483833,0.05021 0.703279,0.08427 0.219447,0.03406 0.423664,0.07478 0.6119,0.124207 0.188236,0.04943 0.36049,0.107576 0.516013,0.176491 0.155522,0.06892 0.294313,0.148602 0.41562,0.241116 0.121307,0.09251 0.225131,0.197857 0.310721,0.318084 0.142144,0.199668 0.263141,0.412918 0.363367,0.635467 0.100225,0.222548 0.179679,0.454395 0.238737,0.691258 0.05906,0.236862 0.09772,0.47874 0.116362,0.721351 0.01864,0.242611 0.01726,0.485954 -0.0038,0.725747 -0.02102,0.239792 -0.06169,0.476035 -0.121631,0.704444 -0.05994,0.228409 -0.139146,0.448984 -0.237247,0.657443 -0.0981,0.208459 -0.215097,0.404802 -0.350611,0.584745 -0.135514,0.179944 -0.289547,0.343487 -0.461722,0.486349 -0.06048,0.05019 -0.152888,0.09595 -0.271994,0.137616 -0.119106,0.04166 -0.264915,0.07923 -0.432215,0.11301 -0.167299,0.03378 -0.356089,0.06379 -0.561155,0.09033 -0.205065,0.02655 -0.426407,0.04963 -0.658812,0.06958 -0.232405,0.01995 -0.475872,0.03677 -0.725189,0.05076 -0.249316,0.014 -0.504482,0.02518 -0.760283,0.03387 -0.255801,0.0087 -0.512237,0.01488 -0.764095,0.01891 -0.251859,0.004 -0.499139,0.0059 -0.736627,0.0059 h -2.46041 v 1.671136 c 0,0.277437 -0.0098,0.539475 -0.02902,0.785174 -0.01918,0.245699 -0.04772,0.475059 -0.08513,0.68714 -0.03741,0.212081 -0.08369,0.406883 -0.138363,0.583466 -0.05467,0.176582 -0.117741,0.334946 -0.188723,0.47415 -0.07098,0.139205 -0.149876,0.25925 -0.236206,0.359196 -0.08633,0.09995 -0.180095,0.179793 -0.280815,0.2386 -0.10072,0.05881 -0.208395,0.09658 -0.322546,0.112364 -0.114151,0.01579 -0.234778,0.0096 -0.361402,-0.01951 -0.13918,-0.032 -0.388662,-0.158944 -0.719418,-0.358349 -0.330757,-0.199405 -0.742788,-0.471269 -1.207067,-0.793099 -0.464279,-0.32183 -0.980807,-0.693627 -1.520556,-1.092899 -0.539749,-0.399272 -1.10272,-0.826019 -1.659886,-1.257749 -0.557166,-0.43173 -1.108528,-0.868443 -1.625058,-1.287648 -0.51653,-0.419205 -0.998229,-0.820901 -1.41607,-1.182598 -0.417841,-0.361696 -0.771825,-0.683392 -1.032924,-0.942597 -0.261099,-0.259204 -0.429314,-0.455917 -0.475618,-0.567646 -0.07669,-0.18504 -0.136864,-0.355418 -0.174209,-0.518869 -0.03735,-0.163451 -0.05186,-0.319975 -0.03721,-0.477307 0.01464,-0.157331 0.05844,-0.31547 0.137716,-0.482151 0.07928,-0.16668 0.19403,-0.341902 0.350586,-0.5334 0.156556,-0.191499 0.354913,-0.399273 0.601394,-0.631058 0.246482,-0.231785 0.541088,-0.48758 0.890142,-0.77512 0.349054,-0.28754 0.752556,-0.606824 1.216828,-0.965588 0.464272,-0.358764 0.989315,-0.757007 1.581452,-1.202464 0.302756,-0.227759 0.602841,-0.451771 0.896834,-0.66963 0.293994,-0.21786 0.581896,-0.429568 0.860288,-0.63272 0.278392,-0.203153 0.547273,-0.39775 0.803223,-0.581389 0.255951,-0.183639 0.498971,-0.356319 0.725641,-0.515636 0.226671,-0.159318 0.436991,-0.305274 0.627542,-0.435464 0.190551,-0.13019 0.361332,-0.244614 0.508925,-0.340869 0.147592,-0.09625 0.271995,-0.174341 0.36979,-0.231855 0.238256,-0.154929 0.566485,-0.193503 0.801865,-0.102998 0.167757,0.08813 0.303261,0.242678 0.415511,0.377022 0.17434,0.281268 0.119654,0.105672 0.315504,0.446872 z"
       transform="rotate(90,27.521294,27.253561)" />
  </g>
</svg>
