<?xml version="1.0" encoding="UTF-8" standalone="no"?>
<svg
   xmlns:dc="http://purl.org/dc/elements/1.1/"
   xmlns:cc="http://creativecommons.org/ns#"
   xmlns:rdf="http://www.w3.org/1999/02/22-rdf-syntax-ns#"
   xmlns:svg="http://www.w3.org/2000/svg"
   xmlns="http://www.w3.org/2000/svg"
   xmlns:sodipodi="http://sodipodi.sourceforge.net/DTD/sodipodi-0.dtd"
   xmlns:inkscape="http://www.inkscape.org/namespaces/inkscape"
   style="font-style:normal;font-weight:normal;font-size:12px;font-family:Dialog;color-interpolation:auto;fill:#000000;fill-opacity:1;stroke:#000000;stroke-width:1;stroke-linecap:square;stroke-linejoin:miter;stroke-miterlimit:10;stroke-dasharray:none;stroke-dashoffset:0;stroke-opacity:1;color-rendering:auto;image-rendering:auto;shape-rendering:auto;text-rendering:auto"
   width="1590"
   height="400"
   version="1.1"
   id="svg4762"
   sodipodi:docname="background_3.svg"
   inkscape:version="0.92.4 (5da689c313, 2019-01-14)"
   inkscape:export-filename="F:\PC\Document Files\UNN\Scientific work\Levy\Game_client\RWGame\RWGame\RWGame.Android\Resources\drawable\background_3.png"
   inkscape:export-xdpi="96"
   inkscape:export-ydpi="96">
  <metadata
     id="metadata4766">
    <rdf:RDF>
      <cc:Work
         rdf:about="">
        <dc:format>image/svg+xml</dc:format>
        <dc:type
           rdf:resource="http://purl.org/dc/dcmitype/StillImage" />
        <dc:title></dc:title>
      </cc:Work>
    </rdf:RDF>
  </metadata>
  <sodipodi:namedview
     pagecolor="#ffffff"
     bordercolor="#666666"
     borderopacity="1"
     objecttolerance="10"
     gridtolerance="10"
     guidetolerance="10"
     inkscape:pageopacity="0"
     inkscape:pageshadow="2"
     inkscape:window-width="1920"
     inkscape:window-height="1017"
     id="namedview4764"
     showgrid="false"
     inkscape:zoom="0.45202559"
     inkscape:cx="341.37708"
     inkscape:cy="179.49682"
     inkscape:window-x="-8"
     inkscape:window-y="-8"
     inkscape:window-maximized="1"
     inkscape:current-layer="svg4762" />
  <!--Generated by the Batik Graphics2D SVG Generator-->
  <defs
     id="genericDefs" />
  <rect
     style="display:inline;opacity:1;fill:#ffffff;fill-opacity:1;fill-rule:evenodd;stroke:none;stroke-width:0;stroke-miterlimit:10;stroke-dasharray:none;stroke-opacity:1;paint-order:fill markers stroke"
     id="rect4768"
     width="399.11792"
     height="1592.4386"
     x="-397.78775"
     y="4.1994863e-06"
     inkscape:export-xdpi="230.39999"
     inkscape:export-ydpi="230.39999"
     transform="rotate(-90)" />
  <g
     style="display:inline;color-interpolation:linearRGB;fill:#0072bd;stroke:#0072bd;stroke-width:4;stroke-linecap:butt;stroke-linejoin:round;color-rendering:optimizeQuality;image-rendering:optimizeQuality;text-rendering:geometricPrecision"
     id="g4758"
     transform="rotate(90,497.50642,321.72057)">
    <path
       id="path4756"
       style="fill:none;fill-rule:evenodd"
       d="m 514.27766,43.433961 v 27.2857 h 27.2857 v 27.2857 h -27.2857 v -27.2857 h 27.2857 v -27.2857 h 27.2857 v 27.2857 h -27.2857 v -27.2857 h -27.2857 v -27.2857 h -27.2857 v -27.2857 h 27.2857 v 27.2857 h -27.2857 v 27.2857 h 27.2857 v 27.2857 h 27.2857 v 27.2857 h -27.2857 v -27.2857 h -27.2857 v 27.2857 h 27.2857 v -27.2857 h 27.2857 v 27.2857 h -27.2857 v 27.285699 h 27.2857 V 98.005361 h -27.2857 v 27.285699 h -27.2857 v 27.2858 h -27.2858 v -27.2858 h -27.2857 v 27.2858 h -27.2857 v 27.2857 h -27.2857 v 27.2857 h 27.2857 v -27.2857 h 27.2857 v -27.2857 h -27.2857 v 27.2857 h 27.2857 v 27.2857 h 27.2857 v -27.2857 h 27.2858 v -27.2857 h 27.2857 v -27.2858 h -27.2857 v 27.2858 h -27.2858 v 27.2857 h 27.2858 v -27.2857 h -27.2858 v -27.2858 h -27.2857 v 27.2858 h 27.2857 v 27.2857 h 27.2858 v 27.2857 h -27.2858 v -27.2857 h 27.2858 v 27.2857 h -27.2858 v 27.2857 h -27.2857 v 27.2857 h -27.2857 v 27.2857 h -27.2857 v -27.2857 h 27.2857 v -27.2857 h -27.2857 v 27.2857 h -27.2857 v 27.7143 h -27.2857 v 27.2857 h -27.2857 v 27.2857 h -27.2858 v -27.2857 h 27.2858 v -27.2857 h 27.2857 v 27.2857 h -27.2857 v 27.2857 h 27.2857 v 27.2857 h -27.2857 v -27.2857 h -27.2858 v 27.2857 h 27.2858 v -27.2857 h 27.2857 v 27.2857 h 27.2857 v 27.2858 h -27.2857 v -27.2858 h 27.2857 v 27.2858 h 27.2857 v 27.2857 h -27.2857 v 27.2857 h -27.2857 v 27.2857 h 27.2857 v -27.2857 h -27.2857 v 27.2857 h -27.2857 v -27.2857 h -27.2858 v 27.2857 h 27.2858 v 27.2857 h 27.2857 v 27.2857 h 27.2857 v 27.2857 h -27.2857 v 27.2858 h -27.2857 v -27.2858 h 27.2857 v -27.2857 h -27.2857 v -27.2857 h 27.2857 v 27.2857 h 27.2857 v 27.2857 h 27.2857 v -27.2857 h 27.2857 v 27.2857 h 27.2857 v 27.2858 h -27.2857 v 27.2857 h 27.2857 v 27.2857 h -27.2857 v 27.2857 h -27.2857 v -27.2857 h 27.2857 v -27.2857 h 27.2857 v -27.2857 h -27.2857 v -27.2858 h 27.2857 v 27.2858 h 27.2857 v -27.2858 h -27.2857 v -27.2857 h 27.2857 v -27.2857 h -27.2857 v 27.2857 h -27.2857 v 27.2857 h -27.2857 v -27.2857 h 27.2857 v -27.2857 h -27.2857 v 27.2857 h 27.2857 v -27.2857 h 27.2857 v -27.2857 h -27.2857 v 27.2857 h -27.2857 v -27.2857 h -27.2857 v -27.2857 h -27.2857 v 27.2857 h 27.2857 v 27.2857 h 27.2857 v 27.2857 h 27.2857 v 27.2857 h 27.2857 v -27.2857 h -27.2857 v -27.2857 h 27.2857 v -27.2857 h -27.2857 v 27.2857 h -27.2857 v 27.2857 h -27.2857 v 27.2857 h -27.2857 v 27.2858 h -27.2857 v 27.2857 h -27.2858 v 27.2857 h 27.2858 v -27.2857 h 27.2857 v -27.2857 h -27.2857 v -27.2858 h -27.2858 v 27.2858 h 27.2858 v 27.2857 h -27.2858 v -27.2857 h 27.2858 v -27.2858 h -27.2858 v 27.2858 h 27.2858 v 27.2857 h -27.2858 v -27.2857 h 27.2858 v -27.2858 h 27.2857 v -27.2857 h -27.2857 v -27.2857 h -27.2858 v 27.2857 h -27.2857 v 27.2857 h 27.2857 v -27.2857 h 27.2858 v 27.2857 h -27.2858 v 27.2858 h -27.2857 v 27.2857 h 27.2857 v -27.2857 h -27.2857 v 27.2857 h 27.2857 v 27.2857 h -27.2857 v 27.2857 h 27.2857 v -27.2857 h -27.2857 v -27.2857 h 27.2857 v -27.2857 h -27.2857 v -27.2858 h -27.2857 v 27.2858 h -27.2857 v 27.2857 h 27.2857 v 27.2857 h 27.2857 v 27.2857 h -27.2857 v -27.2857 h 27.2857 v 27.2857 h 27.2857 v 27.2857 h 27.2858 v 27.2857 h -27.2858 v -27.2857"
       inkscape:connector-curvature="0"
       sodipodi:nodetypes="cccccccccccccccccccccccccccccccccccccccccccccccccccccccccccccccccccccccccccccccccccccccccccccccccccccccccccccccccccccccccccccccccccccccccccccccccccccccccccccccccccccccccccccccccccccccccccccccccccccccccccccccccccccccccccccccccccccccccccccccccccccccccccccccccccccccccccccccccccccccccccccccccccccccccccc" />
    <path
       style="font-style:normal;font-weight:normal;font-size:12px;font-family:Dialog;display:inline;color-interpolation:linearRGB;fill:none;fill-opacity:1;fill-rule:evenodd;stroke:#0072bd;stroke-width:4;stroke-linecap:butt;stroke-linejoin:round;stroke-miterlimit:10;stroke-dasharray:none;stroke-dashoffset:0;stroke-opacity:1;color-rendering:optimizeQuality;image-rendering:optimizeQuality;shape-rendering:auto;text-rendering:geometricPrecision"
       d="m 432.42056,70.719661 v -27.2857 h 27.2857 v -27.2857 h -27.2857 v 27.2857 h 27.2857 v 27.2857 h 27.2857 v -27.2857 h -27.2857 v 27.2857 h -27.2857 v 27.2857 h -27.2857 v 27.285699 h 27.2857 V 98.005361 h -27.2857 v -27.2857 h 27.2857 v -27.2857 h 27.2857 v -27.2857 h -27.2857 v 27.2857 h -27.2857 v -27.2857 h 27.2857 v 27.2857 h 27.2857 v -27.2857 h -27.2857 v -27.2857 h 27.2857 v 27.2857 h -27.2857 v -27.2857 h -27.2857 v -27.2858 h -27.2858 v 27.2858 h -27.2857 v -27.2858 h -27.2857 v -27.28565 h -27.2857 v -27.2857 h 27.2857 v 27.2857 h 27.2857 v 27.28565 h -27.2857 v -27.28565 h 27.2857 v -27.2857 h 27.2857 v 27.2857 h 27.2858 v 27.28565 h 27.2857 v 27.2858 h -27.2857 v -27.2858 h -27.2858 v -27.28565 h 27.2858 v 27.28565 h -27.2858 v 27.2858 h -27.2857 v -27.2858 h 27.2857 v -27.28565 h 27.2858 v -27.2857 h -27.2858 v 27.2857 h 27.2858 v -27.2857 h -27.2858 v -27.285701 h -27.2857 v -27.2857 h -27.2857 v -27.2857 h -27.2857 v 27.2857 h 27.2857 v 27.2857 h -27.2857 v -27.2857 h -27.2857 v -27.7143 h -27.2857 v -27.2857 h -27.2857 v -27.2857 h -27.2858 v 27.2857 h 27.2858 v 27.2857 h 27.2857 v -27.2857 h -27.2857 v -27.2857 h 27.2857 v -27.2857 h -27.2857 v 27.2857 h -27.2858 v -27.2857 h 27.2858 v 27.2857 h 27.2857 v -27.2857 h 27.2857 v -27.2858 h -27.2857 v 27.2858 h 27.2857 v -27.2858 h 27.2857 v -27.2857 h -27.2857 v -27.2857 h -27.2857 v -27.2857 h 27.2857 v 27.2857 h -27.2857 v -27.2857 h -27.2857 v 27.2857 h -27.2858 v -27.2857 h 27.2858 v -27.2857 h 27.2857 v -27.2857 h 27.2857 v -27.2857 h -27.2857 v -27.2858 h -27.2857 v 27.2858 h 27.2857 v 27.2857 h -27.2857 v 27.2857 h 27.2857 v -27.2857 h 27.2857 v -27.2857 h 27.2857 v 27.2857 h 27.2857 v -27.2857 h 27.2857 v -27.2858 h -27.2857 v -27.2857 h 27.2857 v -27.2857 h -27.2857 v -27.2857 h -27.2857 v 27.2857 h 27.2857 v 27.2857 h 27.2857 v 27.2857 h -27.2857 v 27.2858 h 27.2857 v -27.2858 h 27.2857 v 27.2858 h -27.2857 v 27.2857 h 27.2857 v 27.2857 h -27.2857 v -27.2857 h -27.2857 v -27.2857 h -27.2857 v 27.2857 h 27.2857 v 27.2857 h -27.2857 v -27.2857 h 27.2857 v 27.2857 h 27.2857 v 27.2857 h -27.2857 v -27.2857 h -27.2857 v 27.2857 h -27.2857 v 27.2857 h -27.2857 v -27.2857 h 27.2857 v -27.2857 h 27.2857 v -27.2857 h 27.2857 v -27.2857 h 27.2857 v 27.2857 h -27.2857 v 27.2857 h 27.2857 v 27.2857 h -27.2857 v -27.2857 h -27.2857 v -27.2857 h -27.2857 v -27.2857 h -27.2857 v -27.2858 h -27.2857 v -27.2857 h -27.2858 m 0,0 v -27.2857 m 0,0 h 27.2858 v 27.2857 h 27.2857 v 27.2857 h -27.2857 v 27.2858 m 0,-27.2858 v -27.2857 h -27.2858 m 27.2858,27.2857 v 27.2858 m 0,-27.2858 v -27.2857 h -27.2858 m 27.2858,27.2857 v 27.2858 h 27.2857 v 27.2857 h -27.2857 v 27.2857 h -27.2858 v -27.2857 m 0,0 h 27.2858 v -27.2857 m -27.2858,-54.5715 v -27.2857 m 0,-27.2857 v 27.2857 m 0,-27.2857 v -27.2857 h 27.2858 v -27.2857 h -27.2858 v 27.2857"
       id="path4756-7"
       inkscape:connector-curvature="0"
       sodipodi:nodetypes="ccccccccccccccccccccccccccccccccccccccccccccccccccccccccccccccccccccccccccccccccccccccccccccccccccccccccccccccccccccccccccccccccccccccccccccccccccccccccccccccccccccccccccccccccccccccccccccccccccccccccccccccccccccccccccccccccccccccccccccccccccccccccccccccccccccccccc" />
  </g>
</svg>
