<?xml version="1.0" encoding="UTF-8" standalone="no"?>
<!-- Generator: Adobe Illustrator 18.1.1, SVG Export Plug-In . SVG Version: 6.00 Build 0)  -->

<svg
   xmlns:dc="http://purl.org/dc/elements/1.1/"
   xmlns:cc="http://creativecommons.org/ns#"
   xmlns:rdf="http://www.w3.org/1999/02/22-rdf-syntax-ns#"
   xmlns:svg="http://www.w3.org/2000/svg"
   xmlns="http://www.w3.org/2000/svg"
   xmlns:sodipodi="http://sodipodi.sourceforge.net/DTD/sodipodi-0.dtd"
   xmlns:inkscape="http://www.inkscape.org/namespaces/inkscape"
   version="1.1"
   id="Capa_1"
   x="0px"
   y="0px"
   viewBox="0 0 279.881 279.881"
   style="enable-background:new 0 0 279.881 279.881;"
   xml:space="preserve"
   sodipodi:docname="connect.svg"
   inkscape:export-filename="F:\PC\Document Files\UNN\Scientific work\Levy\Game_client\RWGame\RWGame\RWGame.Android\Resources\drawable\connect.png"
   inkscape:export-xdpi="205.8"
   inkscape:export-ydpi="205.8"
   inkscape:version="0.92.4 (5da689c313, 2019-01-14)"><metadata
   id="metadata41"><rdf:RDF><cc:Work
       rdf:about=""><dc:format>image/svg+xml</dc:format><dc:type
         rdf:resource="http://purl.org/dc/dcmitype/StillImage" /></cc:Work></rdf:RDF></metadata><defs
   id="defs39" /><sodipodi:namedview
   pagecolor="#ffffff"
   bordercolor="#666666"
   borderopacity="1"
   objecttolerance="10"
   gridtolerance="10"
   guidetolerance="10"
   inkscape:pageopacity="0"
   inkscape:pageshadow="2"
   inkscape:window-width="1920"
   inkscape:window-height="1017"
   id="namedview37"
   showgrid="false"
   inkscape:zoom="0.84321547"
   inkscape:cx="139.94051"
   inkscape:cy="139.94051"
   inkscape:window-x="-8"
   inkscape:window-y="-8"
   inkscape:window-maximized="1"
   inkscape:current-layer="Capa_1" />
<path
   style="fill:#ffffff;fill-opacity:1"
   d="m 153.905,130.755 c 2.562,-5.39 5.695,-12.222 8.169,-18.4 2.241,-5.57 -0.315,-13.201 -5.314,-16.529 C 124.589,74.369 15.465,12.559 3.118,151.467 2.585,157.45 1.524,157.521 0.931,151.543 -1.157,130.63 -2.13,84.415 25.457,59.531 c 4.46,-4.019 12.319,-9.801 17.345,-13.086 17.884,-11.71 62.767,-31.857 127.318,2.594 5.303,2.828 10.476,0.598 11.727,-5.276 l 4.493,-21.142 c 1.246,-5.874 4.775,-6.467 7.887,-1.327 l 52.917,87.563 c 3.106,5.14 0.865,10.334 -5.009,11.607 l -82.375,17.764 c -5.882,1.268 -8.433,-2.05 -5.855,-7.473 z m 82.342,108.602 c -17.884,11.694 -62.761,31.802 -127.318,-2.622 -5.303,-2.828 -11.047,-0.756 -12.994,4.928 l -5.466,15.958 c -1.947,5.684 -5.793,5.978 -8.588,0.658 L 39.625,177.835 c -2.796,-5.319 -0.402,-11.052 5.347,-12.804 l 69.832,-21.332 c 5.744,-1.751 9.1,1.517 7.5,7.316 -1.795,6.489 -4.117,14.947 -6.081,22.175 -1.572,5.798 1.137,13.353 6.206,16.589 32.553,20.766 142.743,80.319 154.741,-56.653 0.522,-5.983 1.496,-6.032 2.007,-0.049 1.806,21.153 2.197,68.157 -25.58,93.198 -4.464,4.015 -12.318,9.797 -17.35,13.082 z"
   id="path2"
   inkscape:connector-curvature="0" />















</svg>